<svg width="72" height="56" viewBox="0 0 72 56" fill="none" xmlns="http://www.w3.org/2000/svg">
<g clip-path="url(#clip0_5_254)">
<path d="M57.7391 4.66326C54.695 -1.66712 49.7045 -0.603735 44.9819 2.28676C31.9938 10.2308 26.5731 4.13929 18.8587 2.00343C16.5137 1.36776 11.5836 2.22047 11.0046 7.9061C10.3966 13.8841 14.3815 18.846 8.14718 21.0573C5.10039 22.137 -0.442092 23.2367 0.029628 29.6279C0.318252 33.5328 3.9495 35.3699 5.6136 38.6799C8.07142 43.5719 2.90775 50.4562 8.42949 54.2085C16.483 59.6871 28.9389 51.0083 37.6004 49.3301C50.353 46.851 57.6805 55.1093 65.7133 52.5085C71.9512 50.4889 74.3576 39.45 69.1695 33.2567C60.5379 22.9606 72.0729 20.18 68.2613 13.5018C66.0695 9.66146 61.5941 12.6845 57.7364 4.66145" fill="#FABD0F"/>
<path d="M57.8537 17.9541C53.6028 20.7874 49.1887 18.7324 47.0303 16.0253L44.5148 18.1857C45.9886 20.0319 47.7817 21.355 49.756 22.066C49.195 26.3405 47.6373 29.9602 45.2021 32.5828C42.8128 35.16 39.6803 36.7492 36.1411 37.1769C32.7209 37.591 29.3359 36.6411 26.4208 34.8867C23.3153 33.0169 21.0992 30.1563 19.9989 26.6138L16.7852 27.8616C18.1318 32.2141 20.8611 35.7294 24.6773 38.0323C27.3886 39.6545 30.4626 40.5618 33.6147 40.6704C34.5851 40.7044 35.5566 40.6634 36.5208 40.5478C40.8195 40.0265 44.6384 38.0868 47.5562 34.9357C50.4496 31.8145 52.304 27.5982 52.9679 22.6645C54.9864 22.6945 57.6806 21.9889 59.4682 20.6957L57.8537 17.9541Z" fill="white"/>
<path d="M28.8957 24.131C28.9354 25.6149 29.8942 26.7909 31.0388 26.7573C32.1833 26.7237 33.079 25.4959 33.0393 24.0121C32.9996 22.5282 32.0399 21.3523 30.8954 21.3849C29.7508 21.4176 28.8561 22.6463 28.8957 24.131Z" fill="white"/>
<path d="M37.8891 20.2607C36.7563 20.4305 36.0041 21.7591 36.2079 23.2284C36.4117 24.6977 37.4977 25.7502 38.6305 25.5795C39.7633 25.4087 40.5164 24.0811 40.3108 22.6118C40.1052 21.1425 39.0219 20.09 37.8891 20.2607Z" fill="white"/>
</g>
<defs>
<clipPath id="clip0_5_254">
<rect width="72" height="56" fill="white"/>
</clipPath>
</defs>
</svg>
