<svg width="100" height="77" viewBox="0 0 100 77" fill="none" xmlns="http://www.w3.org/2000/svg">
<path fill-rule="evenodd" clip-rule="evenodd" d="M79.1325 52.251C79.8813 51.9569 80.3151 51.597 81.3136 51.3763C83.7427 50.8392 86.3397 51.6259 87.3066 54.0591C88.4224 56.8667 87.0875 61.5758 85.7621 63.7029C85.4146 63.697 83.4327 63.1833 83.1746 63.0225L83.7542 61.784C82.8656 62.076 82.4508 62.3286 81.3066 62.3071C75.6904 62.2028 75.5142 56.1918 80.3666 55.4799C82.956 55.0995 84.4207 56.3685 85.138 56.4753C85.0372 55.2497 84.5994 54.3252 83.7193 53.9313C82.5391 53.4031 81.4319 53.9987 80.5647 54.4041C80.3346 54.1739 79.2214 52.5695 79.1325 52.251ZM55.7223 49.1978C56.4602 48.2373 57.7991 47.148 59.5618 46.7731C60.5123 46.5709 61.5487 46.6448 62.4263 46.9338C66.45 48.2597 66.6516 54.6073 66.3726 58.7163L63.4656 58.6459L63.4831 57.4613C63.1317 57.6215 61.7164 59.2769 58.6572 59.0428C54.7519 58.7432 54 54.1704 57.5819 52.1486C59.3336 51.1602 60.7329 51.2545 62.8881 51.4432C62.3264 48.9921 59.7295 48.5842 57.9393 50.9191C57.7137 50.8382 55.9699 49.4359 55.7223 49.1978ZM27.4603 44.0588C30.5744 43.2331 31.5793 49.1404 28.5715 49.8732C26.9661 50.2641 25.8933 48.7744 25.6841 47.452C25.432 45.8605 26.2173 44.3883 27.4603 44.0588ZM35.8766 42.4344C37.3248 42.2018 38.4031 43.638 38.6507 44.8661C38.9772 46.4875 38.1724 48.1155 36.8076 48.3037C33.7145 48.73 32.6871 42.9461 35.8766 42.4344ZM70.1871 43.3709L72.2608 53.2104C72.4256 52.9274 72.5039 52.6089 72.6597 52.3014C73.4644 50.7104 74.8592 48.9027 76.1906 47.8134C77.9648 46.3617 81.2801 43.982 84.203 43.8422C84.4077 44.2031 84.9299 46.3892 85.0048 46.9059C81.5197 47.4355 79.3312 48.9706 77.1841 51.3294C76.3025 52.2979 75.4862 53.6897 74.7838 55.0935C74.1299 56.3999 73.5907 58.1107 73.3147 59.7172C73.0461 59.7826 71.0198 59.4706 70.4846 59.3708L70.1297 59.2504L66.8883 44.0569L70.1871 43.3709ZM46.5568 38.4901C46.9841 38.7367 48.634 40.9088 52.2548 41.5203C53.5637 41.7415 54.9081 41.6596 56.1522 41.2862C56.7228 41.115 57.193 40.9258 57.6872 40.6712C58.1216 40.447 58.77 39.9668 59.1205 39.8425C59.3446 40.3891 60.8747 42.2432 61.0884 42.7509C59.5613 43.8731 57.9633 44.602 55.9844 45.0548C52.4684 45.8585 54.5247 44.0344 53.0785 49.9451C52.119 53.8669 49.8356 58.3469 46.8233 60.9907L44.5978 62.7764C37.5075 67.9178 26.7854 67.7616 19.8323 62.723C18.083 61.455 16.9818 60.3692 15.6788 58.7832C14.9894 57.944 13.0425 54.9442 12.7639 53.5884L16.3243 52.0258C16.7442 52.6503 17.0167 54.0691 18.7815 56.2751C19.7145 57.4413 20.9241 58.6404 22.2814 59.532C25.2662 61.4919 28.6364 62.7844 32.9696 62.7844C38.8738 62.7844 44.2314 59.3129 46.9267 55.0066C48.6839 52.1985 49.9369 48.4549 50.0582 44.9839C49.6928 44.7128 46.3306 43.9555 43.833 41.0396L45.8189 39.1231C46.055 38.9169 46.2797 38.6773 46.5568 38.4901ZM58.1865 37.7068C57.8804 38.0663 56.7028 38.4661 56.1427 38.6054C55.2765 38.8211 54.3555 38.8386 53.4599 38.6738C48.4148 37.7473 47.6316 31.0234 51.8265 28.2003C54.8477 26.1675 58.8609 27.7835 59.123 30.8726C59.408 34.2348 55.4942 34.6956 52.6352 33.2613C52.3901 33.1385 51.9478 32.8115 51.7331 32.853C51.5744 34.3237 52.2643 35.385 53.2168 35.8747C54.7938 36.6854 56.2116 35.6715 56.8955 35.4888L58.1865 37.7068ZM63.4002 37.1198C63.5939 37.2291 64.1266 37.8706 64.4676 38.1362C64.815 38.4067 65.3846 38.6868 65.9358 38.7567C67.7878 38.9913 68.2501 37.4243 67.707 36.7498C66.7345 35.5422 63.7532 35.6551 62.3669 33.9258C61.7304 33.132 61.4503 31.8096 61.8981 30.6235C62.2451 29.7059 63.0468 28.9471 63.9075 28.5498C66.2443 27.4704 69.1427 28.7979 69.7043 30.0639L67.4219 31.6629C66.9901 31.264 66.9447 30.9315 66.2303 30.7303C65.6073 30.5546 65.0122 30.8282 64.7656 31.1906C63.9299 32.4202 65.3577 33.0751 66.3326 33.3787C68.6585 34.1025 70.8006 34.5338 70.9179 37.2585C71.0283 39.818 69.1772 41.3591 66.8254 41.6491C64.5405 41.9307 62.1702 40.3657 61.4333 38.8206L63.4002 37.1198ZM36.3144 29.2397C36.2505 31.0638 36.219 32.6223 37.1416 33.9797C38.1824 35.5123 39.8618 35.1813 40.8427 33.9243C42.7527 31.4771 43.4936 23.605 50.7936 21.1554C54.5277 19.9019 57.2814 20.7785 60.6321 21.5343L59.8503 24.9414C59.1315 24.8231 58.3821 24.5715 57.6109 24.4312C55.2955 24.0099 52.6527 24.1142 50.6813 25.2744C44.9213 28.6631 46.0206 35.5173 41.5551 37.9784C40.2102 38.7197 38.5888 38.7737 37.0522 38.2265C35.4053 37.6399 34.945 36.7828 34.2072 35.6521C33.8198 36.009 33.5772 36.6969 32.2503 37.6579C28.0838 40.6752 21.3854 37.1562 23.3448 29.2676C23.6797 27.9192 25.088 24.5381 25.9142 23.918C26.1024 24.0463 28.274 25.5904 28.4477 25.8265C28.1078 26.5239 27.8387 26.771 27.3969 27.8284C26.5058 29.96 26.1718 33.505 27.8043 34.8503C29.211 36.0095 30.7631 34.5268 31.5254 33.3672C32.1754 32.3782 32.9746 30.4767 33.2617 29.1453L36.3144 29.2397ZM73.405 23.2641C73.5777 22.8727 73.7225 22.1628 73.8508 21.7105C74.1813 20.5483 74.8942 18.4287 75.3769 17.4597C75.8547 17.609 78.2853 18.5405 78.5529 18.7721C78.195 19.8539 77.1926 21.716 77.0802 22.8372C79.0926 22.4938 79.6302 22.0869 81.0844 21.7095C81.2132 21.8723 81.1893 21.8523 81.2781 22.0709L82.28 24.6384C81.8327 25.0323 80.1714 25.6009 79.438 25.8151C77.9623 26.2459 77.7392 26.1915 76.5705 26.4321L76.2351 26.5754C75.8841 27.74 75.6595 30.7423 75.6595 32.0637C75.6595 34.4999 75.9969 37.4358 77.4222 38.8441C78.2274 39.6398 79.3601 39.7656 80.38 39.0058C80.9431 38.587 81.6046 37.2191 81.5192 36.0724L81.4469 35.1604L84.7462 34.2183C85.803 37.8471 83.8066 43.1268 78.4111 43.1268C73.722 43.1268 72.1994 37.3414 72.1994 32.6578V31.8411C72.1994 29.4064 72.5578 28.5093 72.6767 26.7366C70.9279 26.7571 64.2205 26.2604 63.0907 25.5999L63.872 22.2806C65.1445 22.4783 66.4095 22.7893 67.7439 22.9715C69.901 23.2666 71.3418 23.3275 73.405 23.2641ZM31.5878 22.7079C31.6088 22.697 31.6357 22.689 31.6532 22.683C31.6712 22.6775 31.6971 22.6665 31.7191 22.66C32.1654 22.5297 32.4804 22.5951 33.1009 22.2467C33.398 22.0799 34.1148 21.6177 33.8328 21.1164C33.4773 20.4844 31.796 21.7345 30.7706 21.4804C29.7707 21.2333 29.5305 19.819 30.1885 19.0372C30.7082 18.4197 31.5928 17.7807 32.7465 17.7058L32.9257 18.6239L32.751 18.6948C32.6876 18.7152 32.6312 18.7262 32.5693 18.7407C32.1524 18.838 31.9882 18.873 31.5948 19.1066C31.2698 19.2993 30.857 19.5913 30.9927 20.1654C31.3991 20.8808 33.4519 19.2249 34.4463 19.9683C34.7134 20.1679 34.952 20.5099 35.0169 20.8853C35.2905 22.4638 32.9946 23.6959 31.78 23.613C31.6547 23.3814 31.6232 23.012 31.5878 22.7079ZM41.1363 13.755C41.2975 13.9248 42.8526 18.1227 42.9919 18.6573L41.9235 19.0267L40.8622 16.2002C40.5976 16.9061 40.5272 18.544 40.2452 19.0732C39.7989 19.495 39.1005 18.7157 38.7735 18.4616C38.5349 18.2759 37.6343 17.6005 37.509 17.4907L38.5104 20.2573C38.3122 20.4465 37.7756 20.5878 37.4975 20.6711C37.3477 20.5164 35.8002 16.285 35.6714 15.8023C36.4871 15.0984 36.9703 15.7149 37.2294 15.9221C37.3987 16.0579 37.5404 16.1702 37.6822 16.2855L39.5023 17.7338L39.729 16.8422C39.7844 16.5377 39.8438 16.2187 39.9007 15.9056C40.012 15.2951 40.1638 14.6536 40.2337 14.0725L41.1363 13.755ZM71.4012 16.4353C71.3587 16.647 70.8201 18.3069 70.7582 18.3952C70.4437 18.843 69.1837 18.6383 68.6665 18.4906C65.4605 17.575 66.083 13.4096 68.9101 13.1395C70.3284 13.0037 71.7985 13.9003 72.0377 14.9002L71.1346 15.2851C70.8595 15.0615 70.6863 14.396 69.6489 14.2313C67.2372 13.8474 66.9522 17.885 69.8561 17.5625C70.0483 17.0943 70.1207 16.5167 70.3952 16.1303L71.4012 16.4353ZM45.5758 12.7376L46.6855 17.8286L45.5159 18.0842L44.3822 12.9588L45.5758 12.7376ZM55.6634 11.4936L56.8735 11.4691L57.0457 16.7049L55.8282 16.7303L55.6634 11.4936ZM49.8211 11.9858L50.3573 16.1647C50.9823 16.1493 52.4999 15.7853 52.9767 15.9081L53.082 16.8412L49.3039 17.297C49.1911 17.0174 48.609 12.4581 48.6425 12.1141L49.8211 11.9858ZM59.6666 16.65C59.5778 16.1373 60.0111 12.2474 60.1064 11.4522C60.2822 11.4362 60.719 11.4571 60.8922 11.4891C61.1962 11.5445 61.1937 11.6214 61.3455 11.854C61.64 12.3038 63.1636 14.6197 63.4112 14.8373L63.6903 11.7512L64.9004 11.8665L64.4256 17.0533C64.206 17.0783 63.8141 17.0638 63.5939 17.0179C63.3029 16.9565 63.3274 16.8771 63.1696 16.638L61.1273 13.6612L60.7729 16.6799C60.7679 16.6684 60.7529 16.7259 60.7384 16.7508L59.6666 16.65ZM40.5422 10.1592C37.214 10.1592 34.3924 9.13879 31.485 7.85531C29.4831 6.9712 27.4114 6.12354 25.2453 5.55543C24.0252 5.23593 23.3293 5.10963 21.9789 5.10963C20.5197 5.10963 18.8868 5.55094 17.806 6.2089C16.6862 6.89083 15.6923 7.6731 14.9535 8.77686C14.0289 10.1582 13.4399 11.9394 13.4399 13.7231C13.4399 15.4099 13.4733 16.2556 13.6755 17.9429C13.7604 18.6538 13.9575 19.5569 14.1008 20.2643C14.8541 23.9779 16.0183 28.0176 12.053 30.3799C9.82304 31.7083 6.79331 32.2285 4.5149 33.6088L3.41513 34.2907C1.60797 35.4878 0 37.4073 0 40.0087C0 42.5327 0.540649 44.4043 1.55805 46.4701C2.50905 48.401 3.08415 49.339 4.03315 51.0489C5.01761 52.8236 7.19917 55.9282 7.84466 57.8556C9.43715 62.6127 6.07295 68.1135 9.26992 72.4692C9.4691 72.7402 9.62236 72.898 9.83253 73.1686C10.2149 73.6608 10.6782 73.9718 11.1609 74.3647C16.1371 78.4178 23.6538 76.6326 29.0423 74.8429C37.9343 71.8901 47.659 66.22 56.7292 66.22C58.2663 66.22 59.9222 66.2699 61.3759 66.4741C67.3406 67.3118 71.7526 69.1778 77.3403 70.1867C78.3662 70.3725 79.7241 70.6101 80.8613 70.6016C81.6276 70.5956 82.0569 70.7149 82.7383 70.6216C83.0458 70.5791 83.3718 70.6036 83.6858 70.6036C85.7326 70.6021 88.9995 69.7834 90.9115 68.9187C91.1666 68.8034 91.3318 68.7505 91.5974 68.6397L93.5823 67.6542C94.7754 66.9408 95.8702 66.0218 96.6989 64.9051C100.156 60.2459 100.815 53.8724 99.0626 48.3162L98.6084 47.0626C96.7543 42.3905 93.5957 42.0041 91.6778 38.1771C90.5251 35.8782 90.892 33.9138 91.9748 31.7417C92.4875 30.7133 93.0566 29.8083 93.729 28.8922C93.8389 28.7429 93.8434 28.7215 93.9347 28.5782C94.0251 28.4364 94.068 28.397 94.1833 28.2327C96.7543 24.5605 97.6054 21.9441 94.9551 17.9699C91.9708 13.4949 87.7894 15.4254 83.5446 12.2279C83.2221 11.9853 83.0024 11.7771 82.6954 11.5175C82.2955 11.1796 81.8517 10.8022 81.5297 10.3818C81.3909 10.2006 81.2886 10.1212 81.1478 9.94702C79.3447 7.71503 78.8255 6.38263 77.3398 4.39875C73.4659 -0.772615 68.4698 -0.778605 63.0094 1.29164L57.3233 4.07027C56.0169 4.77665 54.7893 5.55992 53.4619 6.22338L50.2484 7.76246C49.6619 8.01306 49.1357 8.26567 48.5157 8.47983L44.8185 9.60905C44.18 9.7708 43.4581 9.90459 42.8226 9.98945C42.1522 10.0788 41.2366 10.1592 40.5422 10.1592Z" fill="#FCBD0F"/>
<path fill-rule="evenodd" clip-rule="evenodd" d="M46.5567 38.4902C46.2797 38.6774 46.055 38.9171 45.8189 39.1232L43.833 41.0397C46.3306 43.9556 49.6928 44.7129 50.0582 44.984C49.9369 48.4551 48.6839 52.1987 46.9267 55.0067C44.2314 59.313 38.8738 62.7845 32.9696 62.7845C28.6364 62.7845 25.2662 61.492 22.2814 59.5321C20.9241 58.6405 19.7145 57.4414 18.7814 56.2753C17.0167 54.0692 16.7442 52.6505 16.3243 52.0259L12.7639 53.5885C13.0425 54.9443 14.9894 57.9441 15.6788 58.7833C16.9818 60.3693 18.083 61.4551 19.8323 62.7231C26.7854 67.7617 37.5075 67.9179 44.5978 62.7765L46.8233 60.9908C49.8356 58.347 52.119 53.867 53.0785 49.9452C54.5247 44.0345 52.4684 45.8586 55.9844 45.0549C57.9633 44.6021 59.5613 43.8733 61.0884 42.751C60.8747 42.2433 59.3446 40.3892 59.1205 39.8426C58.77 39.9669 58.1215 40.4472 57.6872 40.6713C57.193 40.9259 56.7227 41.1151 56.1521 41.2863C54.9081 41.6597 53.5637 41.7416 52.2548 41.5205C48.634 40.9089 46.9841 38.7368 46.5567 38.4902Z" fill="#048577"/>
<path fill-rule="evenodd" clip-rule="evenodd" d="M36.3144 29.2396L33.2617 29.1453C32.9746 30.4767 32.1754 32.3782 31.5254 33.3672C30.7631 34.5268 29.2111 36.0095 27.8043 34.8503C26.1718 33.5049 26.5058 29.96 27.3969 27.8284C27.8387 26.771 28.1078 26.5239 28.4478 25.8265C28.274 25.5904 26.1025 24.0463 25.9142 23.918C25.088 24.538 23.6798 27.9192 23.3448 29.2676C21.3854 37.1562 28.0838 40.6752 32.2503 37.6579C33.5772 36.6969 33.8198 36.009 34.2072 35.6521C34.945 36.7828 35.4053 37.6399 37.0522 38.2265C38.5888 38.7736 40.2103 38.7197 41.5551 37.9784C46.0206 35.5173 44.9213 28.6631 50.6813 25.2744C52.6527 24.1142 55.2955 24.0099 57.6109 24.4312C58.3822 24.5715 59.1315 24.8231 59.8504 24.9414L60.6321 21.5343C57.2814 20.7785 54.5277 19.9018 50.7936 21.1554C43.4936 23.605 42.7528 31.4771 40.8428 33.9243C39.8618 35.1813 38.1824 35.5123 37.1416 33.9797C36.219 32.6223 36.2505 31.0638 36.3144 29.2396Z" fill="#048577"/>
<path fill-rule="evenodd" clip-rule="evenodd" d="M73.405 23.2641C71.3417 23.3275 69.901 23.2666 67.7439 22.9715C66.4095 22.7893 65.1445 22.4783 63.872 22.2806L63.0907 25.5999C64.2204 26.2604 70.9279 26.7571 72.6766 26.7366C72.5578 28.5093 72.1994 29.4064 72.1994 31.8411V32.6578C72.1994 37.3414 73.722 43.1268 78.4111 43.1268C83.8066 43.1268 85.803 37.8471 84.7461 34.2183L81.4468 35.1604L81.5192 36.0724C81.6046 37.2191 80.9431 38.587 80.38 39.0058C79.3601 39.7656 78.2274 39.6398 77.4221 38.8441C75.9969 37.4358 75.6594 34.4999 75.6594 32.0637C75.6594 30.7423 75.8841 27.74 76.235 26.5754L76.5705 26.4321C77.7392 26.1915 77.9623 26.2459 79.438 25.8151C80.1713 25.6009 81.8327 25.0323 82.28 24.6384L81.2781 22.071C81.1892 21.8523 81.2132 21.8723 81.0844 21.7095C79.6302 22.0869 79.0925 22.4938 77.0802 22.8373C77.1925 21.716 78.1949 19.8539 78.5529 18.7722C78.2853 18.5405 75.8546 17.609 75.3769 17.4597C74.8941 18.4287 74.1812 20.5484 73.8508 21.7105C73.7225 22.1628 73.5777 22.8727 73.405 23.2641Z" fill="#048577"/>
<path fill-rule="evenodd" clip-rule="evenodd" d="M66.8883 44.0568L70.1297 59.2504L70.4846 59.3707C71.0198 59.4705 73.0461 59.7825 73.3147 59.7171C73.5908 58.1107 74.1299 56.3999 74.7839 55.0934C75.4863 53.6896 76.3025 52.2978 77.1841 51.3293C79.3312 48.9705 81.5198 47.4355 85.0048 46.9058C84.9299 46.3891 84.4077 44.203 84.2031 43.8421C81.2802 43.9819 77.9649 46.3616 76.1907 47.8134C74.8593 48.9026 73.4645 50.7103 72.6597 52.3013C72.504 52.6088 72.4256 52.9273 72.2609 53.2104L70.1871 43.3708L66.8883 44.0568Z" fill="#048577"/>
<path fill-rule="evenodd" clip-rule="evenodd" d="M62.9185 53.9599C62.5725 55.3137 59.1339 57.3745 58.0471 55.9927C57.2484 54.9778 58.8244 54.1036 59.5328 53.876C60.967 53.4157 61.637 53.6389 62.9185 53.9599ZM55.7223 49.1979C55.9699 49.436 57.7136 50.8383 57.9393 50.9192C59.7295 48.5843 62.3264 48.9922 62.888 51.4433C60.7329 51.2546 59.3336 51.1603 57.5819 52.1487C54 54.1705 54.7518 58.7433 58.6572 59.0429C61.7163 59.277 63.1316 57.6216 63.4831 57.4614L63.4656 58.646L66.3725 58.7164C66.6516 54.6074 66.4499 48.2598 62.4262 46.9339C61.5486 46.6449 60.5122 46.571 59.5617 46.7732C57.799 47.1481 56.4601 48.2374 55.7223 49.1979Z" fill="#048577"/>
<path fill-rule="evenodd" clip-rule="evenodd" d="M84.1815 58.6465C83.7771 59.1362 82.619 59.6544 81.8013 59.7987C80.8188 59.9719 79.392 59.7323 79.3511 58.7938C79.2707 56.9636 83.4691 57.4948 84.1815 58.6465ZM79.1325 52.2511C79.2213 52.5696 80.3346 54.174 80.5647 54.4042C81.4318 53.9988 82.5391 53.4032 83.7192 53.9314C84.5994 54.3253 85.0372 55.2498 85.138 56.4754C84.4206 56.3686 82.9559 55.0996 80.3665 55.48C75.5141 56.1919 75.6904 62.2029 81.3065 62.3072C82.4507 62.3287 82.8656 62.0761 83.7542 61.7841L83.1746 63.0226C83.4327 63.1834 85.4146 63.6971 85.762 63.703C87.0874 61.5759 88.4223 56.8668 87.3066 54.0592C86.3396 51.626 83.7427 50.8393 81.3135 51.3764C80.3151 51.5971 79.8813 51.957 79.1325 52.2511Z" fill="#048577"/>
<path fill-rule="evenodd" clip-rule="evenodd" d="M63.4003 37.1198L61.4333 38.8206C62.1702 40.3657 64.5405 41.9307 66.8254 41.6491C69.1772 41.3591 71.0283 39.818 70.9179 37.2586C70.8006 34.5338 68.6585 34.1025 66.3326 33.3787C65.3577 33.0751 63.9299 32.4202 64.7656 31.1906C65.0122 30.8282 65.6073 30.5546 66.2303 30.7303C66.9447 30.9315 66.9901 31.264 67.4219 31.6629L69.7043 30.0639C69.1427 28.7979 66.2443 27.4705 63.9075 28.5498C63.0468 28.9471 62.2451 29.7059 61.8981 30.6235C61.4503 31.8096 61.7304 33.132 62.3669 33.9258C63.7532 35.6551 66.7345 35.5423 67.707 36.7499C68.2501 37.4243 67.7879 38.9913 65.9358 38.7567C65.3846 38.6868 64.815 38.4067 64.4676 38.1362C64.1266 37.8706 63.594 37.2291 63.4003 37.1198Z" fill="#048577"/>
<path fill-rule="evenodd" clip-rule="evenodd" d="M52.7281 30.96C53.2922 29.4729 56.0314 29.2682 56.5326 30.7783C56.8845 31.8396 55.619 32.0623 54.7364 31.8995C53.8049 31.7283 53.3446 31.319 52.7281 30.96ZM58.1865 37.7069L56.8955 35.4889C56.2116 35.6716 54.7938 36.6855 53.2168 35.8748C52.2643 35.3851 51.5744 34.3237 51.7331 32.853C51.9478 32.8116 52.3901 33.1386 52.6352 33.2614C55.4942 34.6956 59.408 34.2349 59.123 30.8727C58.8609 27.7835 54.8477 26.1676 51.8265 28.2004C47.6316 31.0234 48.4148 37.7473 53.4599 38.6739C54.3555 38.8386 55.2765 38.8212 56.1427 38.6055C56.7028 38.4662 57.8804 38.0663 58.1865 37.7069Z" fill="#048577"/>
<path fill-rule="evenodd" clip-rule="evenodd" d="M27.4603 44.0589C26.2173 44.3884 25.432 45.8606 25.6841 47.4521C25.8933 48.7745 26.9661 50.2642 28.5716 49.8733C31.5794 49.1404 30.5744 43.2332 27.4603 44.0589Z" fill="#048577"/>
<path fill-rule="evenodd" clip-rule="evenodd" d="M35.8765 42.4344C32.687 42.9461 33.7144 48.73 36.8076 48.3037C38.1724 48.1155 38.9771 46.4875 38.6507 44.8661C38.4031 43.638 37.3247 42.2018 35.8765 42.4344Z" fill="#048577"/>
<path fill-rule="evenodd" clip-rule="evenodd" d="M40.2337 14.0726C40.1638 14.6537 40.0121 15.2952 39.9007 15.9057C39.8438 16.2188 39.7844 16.5377 39.729 16.8423L39.5024 17.7339L37.6822 16.2856C37.5404 16.1703 37.3987 16.058 37.2294 15.9222C36.9703 15.715 36.4871 15.0985 35.6714 15.8024C35.8002 16.2851 37.3477 20.5165 37.4975 20.6712C37.7756 20.5879 38.3122 20.4466 38.5104 20.2574L37.509 17.4907C37.6343 17.6006 38.5349 18.276 38.7735 18.4617C39.1005 18.7158 39.7989 19.4951 40.2452 19.0733C40.5272 18.5441 40.5976 16.9062 40.8622 16.2003L41.9236 19.0268L42.9919 18.6574C42.8526 18.1228 41.2975 13.9249 41.1363 13.7551L40.2337 14.0726Z" fill="#FFFEFD"/>
<path fill-rule="evenodd" clip-rule="evenodd" d="M59.6666 16.6501L60.7384 16.7509C60.7529 16.726 60.7679 16.6685 60.7729 16.68L61.1273 13.6613L63.1696 16.6381C63.3273 16.8772 63.3029 16.9566 63.5939 17.018C63.8141 17.0639 64.206 17.0784 64.4256 17.0534L64.9004 11.8666L63.6903 11.7513L63.4112 14.8374C63.1636 14.6198 61.64 12.3039 61.3455 11.8541C61.1937 11.6215 61.1962 11.5446 60.8922 11.4892C60.7189 11.4572 60.2821 11.4363 60.1064 11.4523C60.0111 12.2475 59.5777 16.1374 59.6666 16.6501Z" fill="#FFFEFD"/>
<path fill-rule="evenodd" clip-rule="evenodd" d="M71.4011 16.4352L70.3952 16.1302C70.1206 16.5166 70.0483 17.0942 69.8561 17.5624C66.9521 17.8849 67.2372 13.8473 69.6489 14.2312C70.6863 14.3959 70.8595 15.0614 71.1346 15.285L72.0376 14.9001C71.7985 13.9002 70.3283 13.0036 68.9101 13.1394C66.083 13.4095 65.4605 17.5749 68.6664 18.4905C69.1836 18.6383 70.4436 18.8429 70.7581 18.3951C70.82 18.3068 71.3587 16.6469 71.4011 16.4352Z" fill="#FFFEFD"/>
<path fill-rule="evenodd" clip-rule="evenodd" d="M31.5878 22.7079C31.6232 23.012 31.6547 23.3814 31.78 23.613C32.9945 23.6959 35.2904 22.4638 35.0169 20.8853C34.952 20.5099 34.7133 20.1679 34.4463 19.9683C33.4518 19.2249 31.3991 20.8808 30.9927 20.1654C30.8569 19.5913 31.2698 19.2993 31.5947 19.1066C31.9881 18.873 32.1524 18.838 32.5692 18.7407C32.6311 18.7262 32.6875 18.7152 32.7509 18.6948L32.9257 18.6239L32.7464 17.7058C31.5928 17.7807 30.7081 18.4197 30.1885 19.0372C29.5305 19.819 29.7706 21.2333 30.7705 21.4804C31.7959 21.7345 33.4773 20.4844 33.8327 21.1164C34.1148 21.6177 33.3979 22.0799 33.1009 22.2467C32.4804 22.5951 32.1653 22.5297 31.7191 22.66C31.6971 22.6665 31.6711 22.6775 31.6532 22.683C31.6357 22.689 31.6087 22.697 31.5878 22.7079Z" fill="#FFFEFD"/>
<path fill-rule="evenodd" clip-rule="evenodd" d="M62.9185 53.9597C61.637 53.6387 60.9671 53.4156 59.5329 53.8759C58.8245 54.1035 57.2485 54.9776 58.0472 55.9925C59.134 57.3744 62.5726 55.3136 62.9185 53.9597Z" fill="#FCBD0F"/>
<path fill-rule="evenodd" clip-rule="evenodd" d="M48.6425 12.1141C48.6091 12.4581 49.1911 17.0174 49.304 17.297L53.082 16.8412L52.9767 15.9082C52.4999 15.7854 50.9823 16.1493 50.3573 16.1648L49.8211 11.9858L48.6425 12.1141Z" fill="#FFFEFD"/>
<path fill-rule="evenodd" clip-rule="evenodd" d="M84.1815 58.6463C83.4691 57.4946 79.2707 56.9634 79.3511 58.7936C79.3921 59.7321 80.8188 59.9717 81.8013 59.7985C82.619 59.6542 83.7772 59.136 84.1815 58.6463Z" fill="#FCBD0F"/>
<path fill-rule="evenodd" clip-rule="evenodd" d="M55.8282 16.7305L57.0458 16.705L56.8735 11.4692L55.6635 11.4937L55.8282 16.7305Z" fill="#FFFEFD"/>
<path fill-rule="evenodd" clip-rule="evenodd" d="M44.3822 12.9587L45.5159 18.0841L46.6856 17.8285L45.5758 12.7375L44.3822 12.9587Z" fill="#FFFEFD"/>
<path fill-rule="evenodd" clip-rule="evenodd" d="M52.728 30.96C53.3446 31.3189 53.8048 31.7283 54.7364 31.8995C55.619 32.0622 56.8845 31.8396 56.5325 30.7783C56.0313 29.2681 53.2921 29.4728 52.728 30.96Z" fill="#FCBD0F"/>
</svg>
