<svg width="100" height="80" viewBox="0 0 100 80" fill="none" xmlns="http://www.w3.org/2000/svg">
<path fill-rule="evenodd" clip-rule="evenodd" d="M79.1325 54.251C79.8813 53.9569 80.3151 53.597 81.3136 53.3763C83.7427 52.8392 86.3397 53.6259 87.3066 56.0591C88.4224 58.8667 87.0875 63.5758 85.7621 65.7029C85.4146 65.697 83.4327 65.1833 83.1746 65.0225L83.7542 63.784C82.8656 64.076 82.4508 64.3286 81.3066 64.3071C75.6904 64.2028 75.5142 58.1918 80.3666 57.4799C82.956 57.0995 84.4207 58.3685 85.138 58.4753C85.0372 57.2497 84.5994 56.3252 83.7193 55.9313C82.5391 55.4031 81.4319 55.9987 80.5647 56.4041C80.3346 56.1739 79.2214 54.5695 79.1325 54.251ZM55.7223 51.1978C56.4602 50.2373 57.7991 49.148 59.5618 48.7731C60.5123 48.5709 61.5487 48.6448 62.4263 48.9338C66.45 50.2597 66.6516 56.6073 66.3726 60.7163L63.4656 60.6459L63.4831 59.4613C63.1317 59.6215 61.7164 61.2769 58.6572 61.0428C54.7519 60.7432 54 56.1704 57.5819 54.1486C59.3336 53.1602 60.7329 53.2545 62.8881 53.4432C62.3264 50.9921 59.7295 50.5842 57.9393 52.9191C57.7137 52.8382 55.9699 51.4359 55.7223 51.1978ZM27.4603 46.0588C30.5744 45.2331 31.5793 51.1404 28.5715 51.8732C26.9661 52.2641 25.8933 50.7744 25.6841 49.452C25.432 47.8605 26.2173 46.3883 27.4603 46.0588ZM35.8766 44.4344C37.3248 44.2018 38.4031 45.638 38.6507 46.8661C38.9772 48.4875 38.1724 50.1155 36.8076 50.3037C33.7145 50.73 32.6871 44.9461 35.8766 44.4344ZM70.1871 45.3709L72.2608 55.2104C72.4256 54.9274 72.5039 54.6089 72.6597 54.3014C73.4644 52.7104 74.8592 50.9027 76.1906 49.8134C77.9648 48.3617 81.2801 45.982 84.203 45.8422C84.4077 46.2031 84.9299 48.3892 85.0048 48.9059C81.5197 49.4355 79.3312 50.9706 77.1841 53.3294C76.3025 54.2979 75.4862 55.6897 74.7838 57.0935C74.1299 58.3999 73.5907 60.1107 73.3147 61.7172C73.0461 61.7826 71.0198 61.4706 70.4846 61.3708L70.1297 61.2504L66.8883 46.0569L70.1871 45.3709ZM46.5568 40.4901C46.9841 40.7367 48.634 42.9088 52.2548 43.5203C53.5637 43.7415 54.9081 43.6596 56.1522 43.2862C56.7228 43.115 57.193 42.9258 57.6872 42.6712C58.1216 42.447 58.77 41.9668 59.1205 41.8425C59.3446 42.3891 60.8747 44.2432 61.0884 44.7509C59.5613 45.8731 57.9633 46.602 55.9844 47.0548C52.4684 47.8585 54.5247 46.0344 53.0785 51.9451C52.119 55.8669 49.8356 60.3469 46.8233 62.9907L44.5978 64.7764C37.5075 69.9178 26.7854 69.7616 19.8323 64.723C18.083 63.455 16.9818 62.3692 15.6788 60.7832C14.9894 59.944 13.0425 56.9442 12.7639 55.5884L16.3243 54.0258C16.7442 54.6503 17.0167 56.0691 18.7815 58.2751C19.7145 59.4413 20.9241 60.6404 22.2814 61.532C25.2662 63.4919 28.6364 64.7844 32.9696 64.7844C38.8738 64.7844 44.2314 61.3129 46.9267 57.0066C48.6839 54.1985 49.9369 50.4549 50.0582 46.9839C49.6928 46.7128 46.3306 45.9555 43.833 43.0396L45.8189 41.1231C46.055 40.9169 46.2797 40.6773 46.5568 40.4901ZM58.1865 39.7068C57.8804 40.0663 56.7028 40.4661 56.1427 40.6054C55.2765 40.8211 54.3555 40.8386 53.4599 40.6738C48.4148 39.7473 47.6316 33.0234 51.8265 30.2003C54.8477 28.1675 58.8609 29.7835 59.123 32.8726C59.408 36.2348 55.4942 36.6956 52.6352 35.2613C52.3901 35.1385 51.9478 34.8115 51.7331 34.853C51.5744 36.3237 52.2643 37.385 53.2168 37.8747C54.7938 38.6854 56.2116 37.6715 56.8955 37.4888L58.1865 39.7068ZM63.4002 39.1198C63.5939 39.2291 64.1266 39.8706 64.4676 40.1362C64.815 40.4067 65.3846 40.6868 65.9358 40.7567C67.7878 40.9913 68.2501 39.4243 67.707 38.7498C66.7345 37.5422 63.7532 37.6551 62.3669 35.9258C61.7304 35.132 61.4503 33.8096 61.8981 32.6235C62.2451 31.7059 63.0468 30.9471 63.9075 30.5498C66.2443 29.4704 69.1427 30.7979 69.7043 32.0639L67.4219 33.6629C66.9901 33.264 66.9447 32.9315 66.2303 32.7303C65.6073 32.5546 65.0122 32.8282 64.7656 33.1906C63.9299 34.4202 65.3577 35.0751 66.3326 35.3787C68.6585 36.1025 70.8006 36.5338 70.9179 39.2585C71.0283 41.818 69.1772 43.3591 66.8254 43.6491C64.5405 43.9307 62.1702 42.3657 61.4333 40.8206L63.4002 39.1198ZM36.3144 31.2397C36.2505 33.0638 36.219 34.6223 37.1416 35.9797C38.1824 37.5123 39.8618 37.1813 40.8427 35.9243C42.7527 33.4771 43.4936 25.605 50.7936 23.1554C54.5277 21.9019 57.2814 22.7785 60.6321 23.5343L59.8503 26.9414C59.1315 26.8231 58.3821 26.5715 57.6109 26.4312C55.2955 26.0099 52.6527 26.1142 50.6813 27.2744C44.9213 30.6631 46.0206 37.5173 41.5551 39.9784C40.2102 40.7197 38.5888 40.7737 37.0522 40.2265C35.4053 39.6399 34.945 38.7828 34.2072 37.6521C33.8198 38.009 33.5772 38.6969 32.2503 39.6579C28.0838 42.6752 21.3854 39.1562 23.3448 31.2676C23.6797 29.9192 25.088 26.5381 25.9142 25.918C26.1024 26.0463 28.274 27.5904 28.4477 27.8265C28.1078 28.5239 27.8387 28.771 27.3969 29.8284C26.5058 31.96 26.1718 35.505 27.8043 36.8503C29.211 38.0095 30.7631 36.5268 31.5254 35.3672C32.1754 34.3782 32.9746 32.4767 33.2617 31.1453L36.3144 31.2397ZM73.405 25.2641C73.5777 24.8727 73.7225 24.1628 73.8508 23.7105C74.1813 22.5483 74.8942 20.4287 75.3769 19.4597C75.8547 19.609 78.2853 20.5405 78.5529 20.7721C78.195 21.8539 77.1926 23.716 77.0802 24.8372C79.0926 24.4938 79.6302 24.0869 81.0844 23.7095C81.2132 23.8723 81.1893 23.8523 81.2781 24.0709L82.28 26.6384C81.8327 27.0323 80.1714 27.6009 79.438 27.8151C77.9623 28.2459 77.7392 28.1915 76.5705 28.4321L76.2351 28.5754C75.8841 29.74 75.6595 32.7423 75.6595 34.0637C75.6595 36.4999 75.9969 39.4358 77.4222 40.8441C78.2274 41.6398 79.3601 41.7656 80.38 41.0058C80.9431 40.587 81.6046 39.2191 81.5192 38.0724L81.4469 37.1604L84.7462 36.2183C85.803 39.8471 83.8066 45.1268 78.4111 45.1268C73.722 45.1268 72.1994 39.3414 72.1994 34.6578V33.8411C72.1994 31.4064 72.5578 30.5093 72.6767 28.7366C70.9279 28.7571 64.2205 28.2604 63.0907 27.5999L63.872 24.2806C65.1445 24.4783 66.4095 24.7893 67.7439 24.9715C69.901 25.2666 71.3418 25.3275 73.405 25.2641ZM31.5878 24.7079C31.6088 24.697 31.6357 24.689 31.6532 24.683C31.6712 24.6775 31.6971 24.6665 31.7191 24.66C32.1654 24.5297 32.4804 24.5951 33.1009 24.2467C33.398 24.0799 34.1148 23.6177 33.8328 23.1164C33.4773 22.4844 31.796 23.7345 30.7706 23.4804C29.7707 23.2333 29.5305 21.819 30.1885 21.0372C30.7082 20.4197 31.5928 19.7807 32.7465 19.7058L32.9257 20.6239L32.751 20.6948C32.6876 20.7152 32.6312 20.7262 32.5693 20.7407C32.1524 20.838 31.9882 20.873 31.5948 21.1066C31.2698 21.2993 30.857 21.5913 30.9927 22.1654C31.3991 22.8808 33.4519 21.2249 34.4463 21.9683C34.7134 22.1679 34.952 22.5099 35.0169 22.8853C35.2905 24.4638 32.9946 25.6959 31.78 25.613C31.6547 25.3814 31.6232 25.012 31.5878 24.7079ZM41.1363 15.755C41.2975 15.9248 42.8526 20.1227 42.9919 20.6573L41.9235 21.0267L40.8622 18.2002C40.5976 18.9061 40.5272 20.544 40.2452 21.0732C39.7989 21.495 39.1005 20.7157 38.7735 20.4616C38.5349 20.2759 37.6343 19.6005 37.509 19.4907L38.5104 22.2573C38.3122 22.4465 37.7756 22.5878 37.4975 22.6711C37.3477 22.5164 35.8002 18.285 35.6714 17.8023C36.4871 17.0984 36.9703 17.7149 37.2294 17.9221C37.3987 18.0579 37.5404 18.1702 37.6822 18.2855L39.5023 19.7338L39.729 18.8422C39.7844 18.5377 39.8438 18.2187 39.9007 17.9056C40.012 17.2951 40.1638 16.6536 40.2337 16.0725L41.1363 15.755ZM71.4012 18.4353C71.3587 18.647 70.8201 20.3069 70.7582 20.3952C70.4437 20.843 69.1837 20.6383 68.6665 20.4906C65.4605 19.575 66.083 15.4096 68.9101 15.1395C70.3284 15.0037 71.7985 15.9003 72.0377 16.9002L71.1346 17.2851C70.8595 17.0615 70.6863 16.396 69.6489 16.2313C67.2372 15.8474 66.9522 19.885 69.8561 19.5625C70.0483 19.0943 70.1207 18.5167 70.3952 18.1303L71.4012 18.4353ZM45.5758 14.7376L46.6855 19.8286L45.5159 20.0842L44.3822 14.9588L45.5758 14.7376ZM55.6634 13.4936L56.8735 13.4691L57.0457 18.7049L55.8282 18.7303L55.6634 13.4936ZM49.8211 13.9858L50.3573 18.1647C50.9823 18.1493 52.4999 17.7853 52.9767 17.9081L53.082 18.8412L49.3039 19.297C49.1911 19.0174 48.609 14.4581 48.6425 14.1141L49.8211 13.9858ZM59.6666 18.65C59.5778 18.1373 60.0111 14.2474 60.1064 13.4522C60.2822 13.4362 60.719 13.4571 60.8922 13.4891C61.1962 13.5445 61.1937 13.6214 61.3455 13.854C61.64 14.3038 63.1636 16.6197 63.4112 16.8373L63.6903 13.7512L64.9004 13.8665L64.4256 19.0533C64.206 19.0783 63.8141 19.0638 63.5939 19.0179C63.3029 18.9565 63.3274 18.8771 63.1696 18.638L61.1273 15.6612L60.7729 18.6799C60.7679 18.6684 60.7529 18.7259 60.7384 18.7508L59.6666 18.65ZM40.5422 12.1592C37.214 12.1592 34.3924 11.1388 31.485 9.85531C29.4831 8.9712 27.4114 8.12354 25.2453 7.55543C24.0252 7.23593 23.3293 7.10963 21.9789 7.10963C20.5197 7.10963 18.8868 7.55094 17.806 8.2089C16.6862 8.89083 15.6923 9.6731 14.9535 10.7769C14.0289 12.1582 13.4399 13.9394 13.4399 15.7231C13.4399 17.4099 13.4733 18.2556 13.6755 19.9429C13.7604 20.6538 13.9575 21.5569 14.1008 22.2643C14.8541 25.9779 16.0183 30.0176 12.053 32.3799C9.82304 33.7083 6.79331 34.2285 4.5149 35.6088L3.41513 36.2907C1.60797 37.4878 0 39.4073 0 42.0087C0 44.5327 0.540649 46.4043 1.55805 48.4701C2.50905 50.401 3.08415 51.339 4.03315 53.0489C5.01761 54.8236 7.19917 57.9282 7.84466 59.8556C9.43715 64.6127 6.07295 70.1135 9.26992 74.4692C9.4691 74.7402 9.62236 74.898 9.83253 75.1686C10.2149 75.6608 10.6782 75.9718 11.1609 76.3647C16.1371 80.4178 23.6538 78.6326 29.0423 76.8429C37.9343 73.8901 47.659 68.22 56.7292 68.22C58.2663 68.22 59.9222 68.2699 61.3759 68.4741C67.3406 69.3118 71.7526 71.1778 77.3403 72.1867C78.3662 72.3725 79.7241 72.6101 80.8613 72.6016C81.6276 72.5956 82.0569 72.7149 82.7383 72.6216C83.0458 72.5791 83.3718 72.6036 83.6858 72.6036C85.7326 72.6021 88.9995 71.7834 90.9115 70.9187C91.1666 70.8034 91.3318 70.7505 91.5974 70.6397L93.5823 69.6542C94.7754 68.9408 95.8702 68.0218 96.6989 66.9051C100.156 62.2459 100.815 55.8724 99.0626 50.3162L98.6084 49.0626C96.7543 44.3905 93.5957 44.0041 91.6778 40.1771C90.5251 37.8782 90.892 35.9138 91.9748 33.7417C92.4875 32.7133 93.0566 31.8083 93.729 30.8922C93.8389 30.7429 93.8434 30.7215 93.9347 30.5782C94.0251 30.4364 94.068 30.397 94.1833 30.2327C96.7543 26.5605 97.6054 23.9441 94.9551 19.9699C91.9708 15.4949 87.7894 17.4254 83.5446 14.2279C83.2221 13.9853 83.0024 13.7771 82.6954 13.5175C82.2955 13.1796 81.8517 12.8022 81.5297 12.3818C81.3909 12.2006 81.2886 12.1212 81.1478 11.947C79.3447 9.71503 78.8255 8.38263 77.3398 6.39875C73.4659 1.22738 68.4698 1.22139 63.0094 3.29164L57.3233 6.07027C56.0169 6.77665 54.7893 7.55992 53.4619 8.22338L50.2484 9.76246C49.6619 10.0131 49.1357 10.2657 48.5157 10.4798L44.8185 11.6091C44.18 11.7708 43.4581 11.9046 42.8226 11.9895C42.1522 12.0788 41.2366 12.1592 40.5422 12.1592Z" fill="#FCBD0F"/>
<path fill-rule="evenodd" clip-rule="evenodd" d="M46.5567 40.4902C46.2797 40.6774 46.055 40.9171 45.8189 41.1232L43.833 43.0397C46.3306 45.9556 49.6928 46.7129 50.0582 46.984C49.9369 50.4551 48.6839 54.1987 46.9267 57.0068C44.2314 61.313 38.8738 64.7845 32.9696 64.7845C28.6364 64.7845 25.2662 63.492 22.2814 61.5321C20.9241 60.6405 19.7145 59.4414 18.7814 58.2753C17.0167 56.0692 16.7442 54.6505 16.3243 54.0259L12.7639 55.5885C13.0425 56.9443 14.9894 59.9441 15.6788 60.7833C16.9818 62.3693 18.083 63.4551 19.8323 64.7231C26.7854 69.7617 37.5075 69.9179 44.5978 64.7765L46.8233 62.9908C49.8356 60.347 52.119 55.867 53.0785 51.9452C54.5247 46.0345 52.4684 47.8586 55.9844 47.0549C57.9633 46.6021 59.5613 45.8733 61.0884 44.751C60.8747 44.2433 59.3446 42.3892 59.1205 41.8426C58.77 41.9669 58.1215 42.4472 57.6872 42.6713C57.193 42.9259 56.7227 43.1151 56.1521 43.2863C54.9081 43.6597 53.5637 43.7416 52.2548 43.5205C48.634 42.9089 46.9841 40.7368 46.5567 40.4902Z" fill="#048577"/>
<path fill-rule="evenodd" clip-rule="evenodd" d="M36.3144 31.2396L33.2617 31.1453C32.9746 32.4767 32.1754 34.3782 31.5254 35.3672C30.7631 36.5268 29.2111 38.0095 27.8043 36.8503C26.1718 35.5049 26.5058 31.96 27.3969 29.8284C27.8387 28.771 28.1078 28.5239 28.4478 27.8265C28.274 27.5904 26.1025 26.0463 25.9142 25.918C25.088 26.538 23.6798 29.9192 23.3448 31.2676C21.3854 39.1562 28.0838 42.6752 32.2503 39.6579C33.5772 38.6969 33.8198 38.009 34.2072 37.6521C34.945 38.7828 35.4053 39.6399 37.0522 40.2265C38.5888 40.7736 40.2103 40.7197 41.5551 39.9784C46.0206 37.5173 44.9213 30.6631 50.6813 27.2744C52.6527 26.1142 55.2955 26.0099 57.6109 26.4312C58.3822 26.5715 59.1315 26.8231 59.8504 26.9414L60.6321 23.5343C57.2814 22.7785 54.5277 21.9018 50.7936 23.1554C43.4936 25.605 42.7528 33.4771 40.8428 35.9243C39.8618 37.1813 38.1824 37.5123 37.1416 35.9797C36.219 34.6223 36.2505 33.0638 36.3144 31.2396Z" fill="#048577"/>
<path fill-rule="evenodd" clip-rule="evenodd" d="M73.4051 25.2641C71.3418 25.3275 69.9011 25.2666 67.744 24.9715C66.4096 24.7893 65.1446 24.4783 63.8721 24.2806L63.0908 27.5999C64.2205 28.2604 70.928 28.7571 72.6767 28.7366C72.5579 30.5093 72.1995 31.4064 72.1995 33.8411V34.6578C72.1995 39.3414 73.7221 45.1268 78.4112 45.1268C83.8067 45.1268 85.8031 39.8471 84.7462 36.2183L81.4469 37.1604L81.5193 38.0724C81.6047 39.2191 80.9432 40.587 80.3801 41.0058C79.3602 41.7656 78.2275 41.6398 77.4223 40.8441C75.997 39.4358 75.6595 36.4999 75.6595 34.0637C75.6595 32.7423 75.8842 29.74 76.2351 28.5754L76.5706 28.4321C77.7393 28.1915 77.9624 28.2459 79.4381 27.8151C80.1714 27.6009 81.8328 27.0323 82.2801 26.6384L81.2782 24.071C81.1893 23.8523 81.2133 23.8723 81.0845 23.7095C79.6303 24.0869 79.0926 24.4938 77.0803 24.8373C77.1926 23.716 78.1951 21.8539 78.553 20.7722C78.2854 20.5405 75.8547 19.609 75.377 19.4597C74.8942 20.4287 74.1814 22.5484 73.8509 23.7105C73.7226 24.1628 73.5778 24.8727 73.4051 25.2641Z" fill="#048577"/>
<path fill-rule="evenodd" clip-rule="evenodd" d="M66.8882 46.057L70.1296 61.2506L70.4845 61.3709C71.0197 61.4708 73.046 61.7828 73.3146 61.7174C73.5906 60.1109 74.1298 58.4001 74.7838 57.0937C75.4862 55.6899 76.3024 54.2981 77.184 53.3296C79.3311 50.9708 81.5197 49.4357 85.0047 48.906C84.9298 48.3893 84.4076 46.2033 84.2029 45.8424C81.28 45.9821 77.9648 48.3619 76.1905 49.8136C74.8591 50.9029 73.4643 52.7105 72.6596 54.3015C72.5038 54.6091 72.4255 54.9276 72.2607 55.2106L70.187 45.3711L66.8882 46.057Z" fill="#048577"/>
<path fill-rule="evenodd" clip-rule="evenodd" d="M62.9185 55.9596C62.5725 57.3135 59.1339 59.3743 58.0471 57.9924C57.2484 56.9775 58.8244 56.1034 59.5328 55.8758C60.967 55.4155 61.637 55.6386 62.9185 55.9596ZM55.7223 51.1976C55.9699 51.4357 57.7136 52.838 57.9393 52.9189C59.7295 50.5841 62.3264 50.9919 62.888 53.4431C60.7329 53.2544 59.3336 53.16 57.5819 54.1485C54 56.1703 54.7518 60.7431 58.6572 61.0426C61.7164 61.2768 63.1316 59.6214 63.4831 59.4611L63.4656 60.6458L66.3725 60.7161C66.6516 56.6071 66.4499 50.2596 62.4262 48.9337C61.5486 48.6446 60.5122 48.5708 59.5617 48.7729C57.799 49.1478 56.4601 50.2371 55.7223 51.1976Z" fill="#048577"/>
<path fill-rule="evenodd" clip-rule="evenodd" d="M84.1815 60.6465C83.7771 61.1362 82.619 61.6544 81.8013 61.7987C80.8188 61.9719 79.392 61.7323 79.3511 60.7938C79.2707 58.9636 83.4691 59.4948 84.1815 60.6465ZM79.1325 54.2511C79.2213 54.5696 80.3346 56.174 80.5647 56.4042C81.4318 55.9988 82.5391 55.4032 83.7192 55.9314C84.5993 56.3253 85.0372 57.2498 85.138 58.4754C84.4206 58.3686 82.9559 57.0996 80.3665 57.48C75.5141 58.1919 75.6904 64.2029 81.3065 64.3072C82.4507 64.3287 82.8656 64.0761 83.7542 63.7841L83.1746 65.0226C83.4327 65.1834 85.4146 65.697 85.762 65.703C87.0874 63.5759 88.4223 58.8668 87.3066 56.0592C86.3396 53.626 83.7427 52.8393 81.3135 53.3764C80.3151 53.5971 79.8813 53.957 79.1325 54.2511Z" fill="#048577"/>
<path fill-rule="evenodd" clip-rule="evenodd" d="M63.4003 39.1198L61.4333 40.8206C62.1702 42.3657 64.5405 43.9307 66.8254 43.6491C69.1772 43.3591 71.0283 41.818 70.9179 39.2586C70.8006 36.5338 68.6585 36.1025 66.3326 35.3787C65.3577 35.0751 63.9299 34.4202 64.7656 33.1906C65.0122 32.8282 65.6073 32.5546 66.2303 32.7303C66.9447 32.9315 66.9901 33.264 67.4219 33.6629L69.7043 32.0639C69.1427 30.7979 66.2443 29.4705 63.9075 30.5498C63.0468 30.9471 62.2451 31.7059 61.8981 32.6235C61.4503 33.8096 61.7304 35.132 62.3669 35.9258C63.7532 37.6551 66.7345 37.5423 67.707 38.7499C68.2501 39.4243 67.7879 40.9913 65.9358 40.7567C65.3846 40.6868 64.815 40.4067 64.4676 40.1362C64.1266 39.8706 63.594 39.2291 63.4003 39.1198Z" fill="#048577"/>
<path fill-rule="evenodd" clip-rule="evenodd" d="M52.7281 32.96C53.2922 31.4729 56.0314 31.2682 56.5326 32.7783C56.8845 33.8396 55.619 34.0623 54.7364 33.8995C53.8049 33.7283 53.3446 33.319 52.7281 32.96ZM58.1865 39.7069L56.8955 37.4889C56.2116 37.6716 54.7938 38.6855 53.2168 37.8748C52.2643 37.3851 51.5744 36.3237 51.7331 34.853C51.9478 34.8116 52.3901 35.1386 52.6352 35.2614C55.4942 36.6956 59.408 36.2349 59.123 32.8727C58.8609 29.7835 54.8477 28.1676 51.8265 30.2004C47.6316 33.0234 48.4148 39.7473 53.4599 40.6739C54.3555 40.8386 55.2765 40.8212 56.1427 40.6055C56.7028 40.4662 57.8804 40.0663 58.1865 39.7069Z" fill="#048577"/>
<path fill-rule="evenodd" clip-rule="evenodd" d="M27.4605 46.0589C26.2174 46.3884 25.4322 47.8606 25.6843 49.4521C25.8934 50.7745 26.9662 52.2642 28.5717 51.8733C31.5795 51.1404 30.5746 45.2332 27.4605 46.0589Z" fill="#048577"/>
<path fill-rule="evenodd" clip-rule="evenodd" d="M35.8764 44.4344C32.6869 44.9461 33.7143 50.73 36.8074 50.3037C38.1723 50.1155 38.977 48.4875 38.6505 46.8661C38.4029 45.638 37.3246 44.2018 35.8764 44.4344Z" fill="#048577"/>
<path fill-rule="evenodd" clip-rule="evenodd" d="M40.2337 16.0724C40.1638 16.6535 40.0121 17.295 39.9007 17.9055C39.8438 18.2185 39.7844 18.5375 39.729 18.842L39.5024 19.7336L37.6822 18.2854C37.5404 18.1701 37.3987 18.0578 37.2294 17.922C36.9703 17.7148 36.4871 17.0983 35.6714 17.8022C35.8002 18.2849 37.3477 22.5162 37.4975 22.671C37.7756 22.5876 38.3122 22.4464 38.5104 22.2572L37.509 19.4905C37.6343 19.6003 38.5349 20.2758 38.7735 20.4615C39.1005 20.7156 39.7989 21.4949 40.2452 21.073C40.5272 20.5438 40.5976 18.9059 40.8622 18.2L41.9236 21.0266L42.9919 20.6572C42.8526 20.1225 41.2975 15.9246 41.1363 15.7549L40.2337 16.0724Z" fill="#FFFEFD"/>
<path fill-rule="evenodd" clip-rule="evenodd" d="M59.6667 18.6501L60.7385 18.7509C60.753 18.726 60.768 18.6685 60.773 18.68L61.1274 15.6613L63.1697 18.6381C63.3275 18.8772 63.303 18.9566 63.594 19.018C63.8142 19.0639 64.2061 19.0784 64.4257 19.0534L64.9005 13.8666L63.6904 13.7513L63.4113 16.8374C63.1637 16.6198 61.6401 14.3039 61.3456 13.8541C61.1938 13.6215 61.1963 13.5446 60.8923 13.4892C60.7191 13.4572 60.2823 13.4363 60.1065 13.4523C60.0112 14.2475 59.5779 18.1374 59.6667 18.6501Z" fill="#FFFEFD"/>
<path fill-rule="evenodd" clip-rule="evenodd" d="M71.401 18.4352L70.3951 18.1302C70.1205 18.5166 70.0481 19.0942 69.8559 19.5624C66.952 19.8849 67.2371 15.8473 69.6488 16.2312C70.6861 16.3959 70.8594 17.0614 71.1344 17.285L72.0375 16.9001C71.7984 15.9002 70.3282 15.0036 68.9099 15.1394C66.0829 15.4095 65.4604 19.5749 68.6663 20.4905C69.1835 20.6383 70.4435 20.8429 70.758 20.3951C70.8199 20.3068 71.3586 18.6469 71.401 18.4352Z" fill="#FFFEFD"/>
<path fill-rule="evenodd" clip-rule="evenodd" d="M31.5878 24.7079C31.6232 25.012 31.6547 25.3814 31.78 25.613C32.9945 25.6959 35.2904 24.4638 35.0169 22.8853C34.952 22.5099 34.7133 22.1679 34.4463 21.9683C33.4518 21.2249 31.3991 22.8808 30.9927 22.1654C30.8569 21.5913 31.2698 21.2993 31.5947 21.1066C31.9881 20.873 32.1524 20.838 32.5692 20.7407C32.6311 20.7262 32.6875 20.7152 32.7509 20.6948L32.9257 20.6239L32.7464 19.7058C31.5928 19.7807 30.7081 20.4197 30.1885 21.0372C29.5305 21.819 29.7706 23.2333 30.7705 23.4804C31.7959 23.7345 33.4773 22.4844 33.8327 23.1164C34.1148 23.6177 33.3979 24.0799 33.1009 24.2467C32.4804 24.5951 32.1653 24.5297 31.7191 24.66C31.6971 24.6665 31.6711 24.6775 31.6532 24.683C31.6357 24.689 31.6087 24.697 31.5878 24.7079Z" fill="#FFFEFD"/>
<path fill-rule="evenodd" clip-rule="evenodd" d="M62.9184 55.9597C61.6369 55.6387 60.967 55.4156 59.5327 55.8759C58.8244 56.1035 57.2483 56.9776 58.0471 57.9925C59.1339 59.3744 62.5725 57.3136 62.9184 55.9597Z" fill="#FCBD0F"/>
<path fill-rule="evenodd" clip-rule="evenodd" d="M48.6425 14.1141C48.6091 14.4581 49.1911 19.0174 49.304 19.297L53.082 18.8412L52.9767 17.9082C52.4999 17.7854 50.9823 18.1493 50.3573 18.1648L49.8211 13.9858L48.6425 14.1141Z" fill="#FFFEFD"/>
<path fill-rule="evenodd" clip-rule="evenodd" d="M84.1816 60.6465C83.4693 59.4948 79.2709 58.9637 79.3512 60.7938C79.3922 61.7323 80.8189 61.9719 81.8014 61.7987C82.6191 61.6544 83.7773 61.1363 84.1816 60.6465Z" fill="#FCBD0F"/>
<path fill-rule="evenodd" clip-rule="evenodd" d="M55.8281 18.7305L57.0457 18.705L56.8734 13.4692L55.6633 13.4937L55.8281 18.7305Z" fill="#FFFEFD"/>
<path fill-rule="evenodd" clip-rule="evenodd" d="M44.3823 14.9587L45.516 20.0841L46.6857 19.8285L45.5759 14.7375L44.3823 14.9587Z" fill="#FFFEFD"/>
<path fill-rule="evenodd" clip-rule="evenodd" d="M52.728 32.96C53.3446 33.3189 53.8048 33.7283 54.7364 33.8995C55.619 34.0622 56.8845 33.8396 56.5325 32.7783C56.0313 31.2681 53.2921 31.4728 52.728 32.96Z" fill="#FCBD0F"/>
</svg>
