<svg width="80" height="80" viewBox="0 0 80 80" fill="none" xmlns="http://www.w3.org/2000/svg">
<g opacity="0.06">
<rect width="96" height="96" rx="48" fill="#2AA8C3"/>
<path d="M50.8599 54.0028H32.7999C29.1599 54.0028 26.8399 50.1029 28.5999 46.9029L33.2599 38.4228L37.6199 30.4828C39.4399 27.1828 44.1999 27.1828 46.0199 30.4828L50.3999 38.4228L52.4999 42.2428L55.0599 46.9029C56.8199 50.1029 54.4999 54.0028 50.8599 54.0028Z" fill="white"/>
<path opacity="0.4" d="M68 55C68 62.18 62.18 68 55 68C47.82 68 42 62.18 42 55C42 54.66 42.02 54.34 42.04 54H50.86C54.5 54 56.82 50.1 55.06 46.9L52.5 42.24C53.3 42.08 54.14 42 55 42C62.18 42 68 47.82 68 55Z" fill="white"/>
</g>
</svg>
