<svg width="48" height="48" viewBox="0 0 48 48" fill="none" xmlns="http://www.w3.org/2000/svg">
<rect width="48" height="48" rx="24" fill="#FCBD0F" fill-opacity="0.16"/>
<path opacity="0.4" d="M23.5 33C28.7467 33 33 28.7467 33 23.5C33 18.2533 28.7467 14 23.5 14C18.2533 14 14 18.2533 14 23.5C14 28.7467 18.2533 33 23.5 33Z" fill="#FCBD0F"/>
<path d="M33.3001 34.0025C33.1201 34.0025 32.9401 33.9325 32.8101 33.8025L30.9501 31.9425C30.6801 31.6725 30.6801 31.2325 30.9501 30.9525C31.2201 30.6825 31.6601 30.6825 31.9401 30.9525L33.8001 32.8125C34.0701 33.0825 34.0701 33.5225 33.8001 33.8025C33.6601 33.9325 33.4801 34.0025 33.3001 34.0025Z" fill="#FCBD0F"/>
<path d="M25.2699 20.8929C24.6399 20.6929 23.9699 20.8129 23.4899 21.1829C22.9999 20.8129 22.3499 20.6929 21.7199 20.8929C20.3599 21.3329 19.9299 22.8829 20.3099 24.0629C20.8899 25.8729 22.7999 26.8129 23.4899 26.8129C24.1599 26.8129 26.1099 25.8529 26.6699 24.0629C27.0599 22.8829 26.6299 21.3329 25.2699 20.8929Z" fill="#FCBD0F"/>
</svg>
