<svg width="48" height="48" viewBox="0 0 48 48" fill="none" xmlns="http://www.w3.org/2000/svg">
<rect width="48" height="48" rx="24" fill="#ED7061" fill-opacity="0.16"/>
<path d="M27.5201 14.9C26.9201 14.3 26.0501 14 24.9301 14H19.3501C17.1001 14 15.8601 15.24 15.8601 17.49C15.8601 18.61 16.1601 19.48 16.7601 20.08C17.3601 20.68 18.2301 20.98 19.3501 20.98H24.9301C27.1801 20.98 28.4201 19.74 28.4201 17.49C28.4201 16.37 28.1201 15.5 27.5201 14.9Z" fill="#ED7061"/>
<path opacity="0.4" d="M22.6001 27.0234H21.6701C20.7201 27.0234 19.5801 27.3834 19.5801 29.1134V31.9034C19.5801 33.6334 20.7201 33.9934 21.6701 33.9934H22.6001C23.5501 33.9934 24.6901 33.6334 24.6901 31.9034V29.1134C24.7001 27.3934 23.5601 27.0234 22.6001 27.0234Z" fill="#ED7061"/>
<path opacity="0.4" d="M28.65 16.7891H28.37C28.4 17.0091 28.42 17.2391 28.42 17.4891C28.42 17.7391 28.4 17.9691 28.37 18.1891H28.65C30.74 18.1891 30.74 18.4691 30.74 20.2791V22.1391C30.74 23.9491 30.74 24.2291 28.65 24.2291H24.93C21.94 24.2291 21.51 25.6491 21.45 27.0291C21.52 27.0291 21.6 27.0191 21.67 27.0191H22.6C22.68 27.0191 22.76 27.0291 22.85 27.0291C22.9 26.0191 23.19 25.6191 24.93 25.6191H28.65C31.9 25.6191 32.14 24.2991 32.14 22.1291V20.2791C32.14 18.1091 31.9 16.7891 28.65 16.7891Z" fill="#ED7061"/>
</svg>
