<svg width="80" height="80" viewBox="0 0 80 80" fill="none" xmlns="http://www.w3.org/2000/svg">
<g opacity="0.06">
<rect width="96" height="96" rx="48" fill="#FCBD0F"/>
<path opacity="0.4" d="M47 66C57.4934 66 66 57.4934 66 47C66 36.5066 57.4934 28 47 28C36.5066 28 28 36.5066 28 47C28 57.4934 36.5066 66 47 66Z" fill="white"/>
<path d="M66.6001 67.9972C66.2401 67.9972 65.8801 67.8572 65.6201 67.5972L61.9001 63.8772C61.3601 63.3372 61.3601 62.4572 61.9001 61.8972C62.4401 61.3572 63.3201 61.3572 63.8801 61.8972L67.6001 65.6172C68.1401 66.1572 68.1401 67.0372 67.6001 67.5972C67.3201 67.8572 66.9601 67.9972 66.6001 67.9972Z" fill="white"/>
<path d="M50.5401 41.7779C49.2801 41.3779 47.9401 41.6179 46.9801 42.3579C46.0001 41.6179 44.7001 41.3779 43.4401 41.7779C40.7201 42.6579 39.8601 45.7579 40.6201 48.1179C41.7801 51.7379 45.6001 53.6179 46.9801 53.6179C48.3201 53.6179 52.2201 51.6979 53.3401 48.1179C54.1201 45.7579 53.2601 42.6579 50.5401 41.7779Z" fill="white"/>
</g>
</svg>
