<svg width="80" height="80" viewBox="0 0 80 80" fill="none" xmlns="http://www.w3.org/2000/svg">
<g opacity="0.06">
<rect width="96" height="96" rx="48" fill="#ED7061"/>
<path d="M55.04 29.8C53.84 28.6 52.1 28 49.86 28H38.7C34.2 28 31.72 30.48 31.72 34.98C31.72 37.22 32.32 38.96 33.52 40.16C34.72 41.36 36.46 41.96 38.7 41.96H49.86C54.36 41.96 56.84 39.48 56.84 34.98C56.84 32.74 56.24 31 55.04 29.8Z" fill="white"/>
<path opacity="0.4" d="M45.1999 54.0391H43.3399C41.4399 54.0391 39.1599 54.7591 39.1599 58.2191V63.7991C39.1599 67.2591 41.4399 67.9791 43.3399 67.9791H45.1999C47.0999 67.9791 49.3799 67.2591 49.3799 63.7991V58.2191C49.3999 54.7791 47.1199 54.0391 45.1999 54.0391Z" fill="white"/>
<path opacity="0.4" d="M57.2999 33.5781H56.7399C56.7999 34.0181 56.8399 34.4781 56.8399 34.9781C56.8399 35.4781 56.7999 35.9381 56.7399 36.3781H57.2999C61.4799 36.3781 61.4799 36.9381 61.4799 40.5581V44.2781C61.4799 47.8981 61.4799 48.4581 57.2999 48.4581H49.8599C43.8799 48.4581 43.0199 51.2981 42.8999 54.0581C43.0399 54.0581 43.1999 54.0381 43.3399 54.0381H45.1999C45.3599 54.0381 45.5199 54.0581 45.6999 54.0581C45.7999 52.0381 46.3799 51.2381 49.8599 51.2381H57.2999C63.7999 51.2381 64.2799 48.5981 64.2799 44.2581V40.5581C64.2799 36.2181 63.7999 33.5781 57.2999 33.5781Z" fill="white"/>
</g>
</svg>
