<svg width="48" height="48" viewBox="0 0 48 48" fill="none" xmlns="http://www.w3.org/2000/svg">
<rect width="48" height="48" rx="24" fill="#2AA8C3" fill-opacity="0.16"/>
<path d="M25.4301 26.9975H16.4001C14.5801 26.9975 13.4201 25.0475 14.3001 23.4475L16.6301 19.2075L18.8101 15.2375C19.7201 13.5875 22.1001 13.5875 23.0101 15.2375L25.2001 19.2075L26.2501 21.1175L27.5301 23.4475C28.4101 25.0475 27.2501 26.9975 25.4301 26.9975Z" fill="#2AA8C3"/>
<path opacity="0.4" d="M34 27.5C34 31.09 31.09 34 27.5 34C23.91 34 21 31.09 21 27.5C21 27.33 21.01 27.17 21.02 27H25.43C27.25 27 28.41 25.05 27.53 23.45L26.25 21.12C26.65 21.04 27.07 21 27.5 21C31.09 21 34 23.91 34 27.5Z" fill="#2AA8C3"/>
</svg>
