<svg width="48" height="48" viewBox="0 0 48 48" fill="none" xmlns="http://www.w3.org/2000/svg">
<rect width="48" height="48" rx="24" fill="#46962F" fill-opacity="0.16"/>
<path d="M32.6202 20.7C31.5802 16.07 27.5402 14 24.0002 14C24.0002 14 24.0002 14 23.9902 14C20.4602 14 16.4302 16.07 15.3802 20.69C14.2002 25.85 17.3602 30.22 20.2202 32.98C21.2802 34 22.6402 34.51 24.0002 34.51C25.3602 34.51 26.7202 34 27.7702 32.98C30.6302 30.22 33.7902 25.86 32.6202 20.7ZM27.2802 21.53L23.2802 25.53C23.1302 25.68 22.9402 25.75 22.7502 25.75C22.5602 25.75 22.3702 25.68 22.2202 25.53L20.7202 24.03C20.4302 23.74 20.4302 23.26 20.7202 22.97C21.0102 22.68 21.4902 22.68 21.7802 22.97L22.7502 23.94L26.2202 20.47C26.5102 20.18 26.9902 20.18 27.2802 20.47C27.5702 20.76 27.5702 21.24 27.2802 21.53Z" fill="#46962F"/>
</svg>
