<svg width="80" height="80" viewBox="0 0 80 80" fill="none" xmlns="http://www.w3.org/2000/svg">
<g opacity="0.06">
<rect width="96" height="96" rx="48" fill="#46962F"/>
<path d="M68.6882 40.08C66.1922 28.968 56.4962 24 48.0002 24C48.0002 24 48.0002 24 47.9762 24C39.5042 24 29.8322 28.968 27.3122 40.056C24.4802 52.44 32.0642 62.928 38.9282 69.552C41.4722 72 44.7362 73.224 48.0002 73.224C51.2642 73.224 54.5282 72 57.0482 69.552C63.9122 62.928 71.4962 52.464 68.6882 40.08ZM55.8722 42.072L46.2722 51.672C45.9122 52.032 45.4562 52.2 45.0002 52.2C44.5442 52.2 44.0882 52.032 43.7282 51.672L40.1282 48.072C39.4322 47.376 39.4322 46.224 40.1282 45.528C40.8242 44.832 41.9762 44.832 42.6722 45.528L45.0002 47.856L53.3282 39.528C54.0242 38.832 55.1762 38.832 55.8722 39.528C56.5682 40.224 56.5682 41.376 55.8722 42.072Z" fill="white"/>
</g>
</svg>
