<svg width="150" height="59" viewBox="0 0 150 59" fill="none" xmlns="http://www.w3.org/2000/svg">
<path d="M65.9894 24.6422V27.4138H56.7522C55.702 27.4138 54.8506 26.5632 54.8506 25.5129V9.7909H56.1542C57.2038 9.7909 58.0545 10.6412 58.0545 11.6918V24.6422H65.9894Z" fill="#424242"/>
<path d="M73.7181 25.2528C74.6673 25.2528 75.3874 25.2014 75.8795 25.1V21.692C75.7102 21.6413 75.4642 21.591 75.1425 21.5396C74.8197 21.4889 74.4639 21.4632 74.0739 21.4632C73.7346 21.4632 73.3915 21.4889 73.0437 21.5396C72.696 21.591 72.3835 21.6839 72.1037 21.8198C71.8242 21.9549 71.5986 22.1457 71.4293 22.3914C71.26 22.637 71.1752 22.9471 71.1752 23.3198C71.1752 24.0491 71.4043 24.5527 71.8615 24.8329C72.3194 25.1127 72.9382 25.2528 73.7181 25.2528ZM73.4633 13.7835C74.4811 13.7835 75.3368 13.9106 76.0326 14.165C76.727 14.4191 77.2827 14.775 77.6977 15.2329C78.1134 15.6908 78.4104 16.2465 78.5885 16.8987C78.7662 17.5509 78.8549 18.2682 78.8549 19.0474V27.1094C78.3805 27.2104 77.6636 27.3343 76.7062 27.4779C75.7482 27.6211 74.6673 27.6943 73.4633 27.6943C72.6664 27.6943 71.9386 27.6173 71.2766 27.4645C70.6156 27.3128 70.0521 27.0664 69.5857 26.7268C69.119 26.3886 68.7551 25.9479 68.4922 25.4055C68.2293 24.8628 68.0977 24.1934 68.0977 23.3962C68.0977 22.6335 68.2462 21.9891 68.5429 21.4632C68.8399 20.9381 69.2422 20.5098 69.7512 20.1797C70.2594 19.8488 70.8479 19.6116 71.518 19.4673C72.1881 19.3226 72.8878 19.2512 73.6167 19.2512C73.9553 19.2512 74.3115 19.2723 74.6846 19.3145C75.0573 19.3568 75.4561 19.4282 75.8795 19.531V19.0224C75.8795 18.6659 75.8376 18.3273 75.7531 18.0045C75.6676 17.6829 75.5191 17.3988 75.3075 17.1524C75.0953 16.9078 74.8159 16.7164 74.4681 16.5809C74.1207 16.4457 73.6833 16.3771 73.1588 16.3771C72.4465 16.3771 71.7943 16.4274 71.2002 16.5302C70.6071 16.6315 70.1235 16.7502 69.7512 16.8857L69.3693 14.3941C69.7593 14.2579 70.327 14.1228 71.0724 13.9869C71.8189 13.8507 72.6158 13.7835 73.4633 13.7835Z" fill="#424242"/>
<path d="M89.2173 20.4205C89.2173 19.031 89.0438 18.0262 88.6964 17.4067C88.3487 16.7887 87.7 16.4782 86.7508 16.4782C86.4115 16.4782 86.0391 16.5039 85.6316 16.5553C85.2251 16.606 84.9199 16.6482 84.7165 16.6824V27.414H83.5399C82.491 27.414 81.6396 26.5636 81.6396 25.513V14.5463C82.2327 14.3767 83.0084 14.2158 83.9668 14.0634C84.9241 13.9107 85.9371 13.8343 87.0056 13.8343C87.9207 13.8343 88.6714 13.9529 89.256 14.1909C89.8403 14.4274 90.3281 14.741 90.7181 15.1309C90.9046 14.9958 91.1411 14.8515 91.4298 14.6987C91.7177 14.5463 92.0404 14.4059 92.3962 14.2788C92.7447 14.1557 93.1114 14.0515 93.5 13.9677C93.9075 13.8794 94.3264 13.8343 94.7434 13.8343C95.7736 13.835 96.6236 13.9832 97.2923 14.2788C97.9621 14.5759 98.4872 14.9916 98.8688 15.5251C99.2496 16.0594 99.5125 16.7045 99.6572 17.4581C99.8011 18.2123 99.8726 19.0391 99.8726 19.9376V27.414H98.6967C97.6471 27.414 96.7964 26.5636 96.7964 25.513V20.4205C96.7964 19.031 96.6264 18.0262 96.2871 17.4067C95.9479 16.7887 95.2957 16.4782 94.3292 16.4782C93.8372 16.4782 93.3712 16.5602 92.9305 16.7204C92.4891 16.8816 92.159 17.0382 91.939 17.1917C92.0745 17.6147 92.1675 18.0645 92.2178 18.539C92.2685 19.0141 92.2952 19.522 92.2952 20.0647V27.414H91.1183C90.0684 27.414 89.2173 26.5636 89.2173 25.513V20.4205Z" fill="#424242"/>
<path d="M111.392 20.8277C111.392 19.4547 111.084 18.3862 110.464 17.6231C109.846 16.8608 108.849 16.4786 107.477 16.4786C107.188 16.4786 106.887 16.4916 106.574 16.5173C106.26 16.5423 105.95 16.5975 105.645 16.6824V24.2857C105.916 24.473 106.277 24.6465 106.726 24.8073C107.175 24.9692 107.654 25.0488 108.163 25.0488C109.281 25.0488 110.1 24.6673 110.617 23.9049C111.134 23.1415 111.392 22.1163 111.392 20.8277ZM114.546 20.7771C114.546 21.7942 114.414 22.7262 114.152 23.5737C113.889 24.4223 113.512 25.1501 113.02 25.7608C112.529 26.3711 111.914 26.8466 111.176 27.1848C110.439 27.5234 109.604 27.6938 108.672 27.6938C108.044 27.6938 107.467 27.6174 106.942 27.4646C106.417 27.3126 105.984 27.1433 105.645 26.9561V32.1186H104.469C103.42 32.1186 102.568 31.2683 102.568 30.2177V14.546C103.195 14.3767 103.967 14.2158 104.882 14.0631C105.798 13.9107 106.764 13.8343 107.782 13.8343C108.833 13.8343 109.774 13.9951 110.604 14.3172C111.435 14.6396 112.143 15.1017 112.728 15.7032C113.313 16.3047 113.762 17.034 114.075 17.891C114.389 18.7462 114.546 19.7085 114.546 20.7771Z" fill="#424242"/>
<path d="M120.381 27.414H119.205C118.156 27.414 117.303 26.563 117.303 25.5131V14.1138H118.481C119.53 14.1138 120.381 14.9652 120.381 16.0147V27.414ZM120.712 10.2232C120.712 10.7994 120.525 11.2577 120.153 11.5962C119.78 11.9352 119.339 12.1052 118.831 12.1052C118.305 12.1052 117.855 11.9352 117.483 11.5962C117.11 11.2577 116.923 10.7994 116.923 10.2232C116.923 9.62985 117.11 9.1635 117.483 8.82456C117.855 8.48527 118.305 8.31598 118.831 8.31598C119.339 8.31598 119.78 8.48527 120.153 8.82456C120.525 9.1635 120.712 9.62985 120.712 10.2232Z" fill="#424242"/>
<path d="M132.689 20.751C132.689 19.4287 132.405 18.3827 131.837 17.6112C131.27 16.8387 130.477 16.454 129.46 16.454C128.442 16.454 127.649 16.8387 127.082 17.6112C126.514 18.3827 126.23 19.4287 126.23 20.751C126.23 22.091 126.514 23.1504 127.082 23.9303C127.649 24.7099 128.442 25.1006 129.46 25.1006C130.477 25.1006 131.27 24.7099 131.837 23.9303C132.405 23.1504 132.689 22.091 132.689 20.751ZM135.842 20.751C135.842 21.8031 135.691 22.7604 135.386 23.6248C135.08 24.4899 134.647 25.2269 134.089 25.8376C133.529 26.4479 132.855 26.9227 132.067 27.2619C131.278 27.6002 130.409 27.7702 129.46 27.7702C128.51 27.7702 127.645 27.6002 126.866 27.2619C126.086 26.9227 125.417 26.4479 124.857 25.8376C124.297 25.2269 123.861 24.4899 123.547 23.6248C123.233 22.7604 123.077 21.8031 123.077 20.751C123.077 19.7001 123.233 18.7459 123.547 17.8907C123.861 17.0344 124.301 16.3009 124.869 15.6906C125.437 15.0799 126.112 14.6097 126.892 14.2792C127.671 13.9484 128.527 13.7833 129.46 13.7833C130.392 13.7833 131.253 13.9484 132.04 14.2792C132.829 14.6097 133.503 15.0799 134.062 15.6906C134.622 16.3009 135.059 17.0344 135.372 17.8907C135.686 18.7459 135.842 19.7001 135.842 20.751Z" fill="#424242"/>
<path d="M138.539 14.5462C139.132 14.3769 139.904 14.2154 140.854 14.0633C141.802 13.9106 142.854 13.8345 144.007 13.8345C145.091 13.8345 145.998 13.9827 146.728 14.2791C147.456 14.5761 148.037 14.9918 148.47 15.5253C148.903 16.0593 149.207 16.7041 149.385 17.458C149.563 18.2122 149.653 19.0393 149.653 19.9379V27.4142H148.476C147.427 27.4142 146.575 26.5628 146.575 25.5133V20.4208C146.575 19.708 146.528 19.1023 146.435 18.6022C146.342 18.1027 146.189 17.6955 145.978 17.3819C145.765 17.0683 145.477 16.8392 145.113 16.6949C144.748 16.5513 144.303 16.4785 143.778 16.4785C143.387 16.4785 142.98 16.5041 142.557 16.5555C142.134 16.6062 141.819 16.6484 141.616 16.6826V27.4142H140.44C139.39 27.4142 138.539 26.5628 138.539 25.5133V14.5462Z" fill="#424242"/>
<path d="M65.3791 54.2954C64.9377 53.6175 64.4299 52.9059 63.8534 52.1594C63.2768 51.4136 62.6711 50.6931 62.0351 49.998C61.3995 49.3029 60.7417 48.6419 60.0645 48.0136C59.3852 47.3875 58.7158 46.8448 58.0545 46.3869V54.2954H56.7515C55.702 54.2954 54.8506 53.4444 54.8506 52.3945V36.6721H56.1542C57.2038 36.6721 58.0545 37.5228 58.0545 38.5734V43.9453C58.6144 43.3854 59.1994 42.7881 59.81 42.1525C60.4207 41.5161 61.0261 40.8724 61.6283 40.2195C62.2298 39.5666 62.8017 38.9352 63.3441 38.3249C63.8875 37.715 64.3785 37.1641 64.8191 36.6721H68.6601C68.1001 37.3162 67.5063 37.9863 66.8791 38.6807C66.2527 39.3766 65.6079 40.0759 64.9469 40.7795C64.2856 41.483 63.6204 42.1824 62.9502 42.8768C62.2804 43.5726 61.6237 44.2339 60.9789 44.8604C61.6923 45.4035 62.416 46.0349 63.154 46.7554C63.8907 47.4762 64.616 48.247 65.3284 49.0699C66.0401 49.892 66.7229 50.748 67.3751 51.6381C68.0272 52.5282 68.6263 53.4138 69.1686 54.2954H65.3791Z" fill="#424242"/>
<path d="M78.5712 46.3356C78.5712 45.9125 78.5117 45.5092 78.3938 45.1277C78.2741 44.7462 78.101 44.4153 77.8719 44.1355C77.6427 43.8561 77.3633 43.6361 77.0324 43.4752C76.7019 43.3144 76.3074 43.2331 75.8502 43.2331C75.3754 43.2331 74.9601 43.3218 74.6043 43.5002C74.2488 43.6783 73.9472 43.9117 73.7008 44.1996C73.4558 44.4882 73.2651 44.8183 73.1292 45.1917C72.993 45.5648 72.9001 45.946 72.8494 46.3356H78.5712ZM69.6455 47.7086C69.6455 46.539 69.819 45.5134 70.1664 44.6318C70.5141 43.7498 70.9763 43.0173 71.5528 42.4324C72.1286 41.8467 72.7899 41.4071 73.5364 41.1101C74.2815 40.813 75.0446 40.6645 75.8245 40.6645C77.6561 40.6645 79.084 41.2332 80.11 42.3687C81.1356 43.5044 81.6491 45.1998 81.6491 47.4541C81.6491 47.6241 81.6442 47.8156 81.6357 48.0271C81.6269 48.2386 81.6142 48.4301 81.5977 48.5998H72.8237C72.9085 49.6673 73.2858 50.4937 73.956 51.0786C74.6257 51.6632 75.5961 51.956 76.8674 51.956C77.6132 51.956 78.2956 51.8881 78.9147 51.753C79.5335 51.6168 80.0206 51.4725 80.3771 51.3208L80.784 53.8376C80.6136 53.9231 80.3806 54.0111 80.0843 54.1048C79.7876 54.1984 79.449 54.2825 79.0675 54.3589C78.6856 54.4352 78.2741 54.4989 77.8345 54.5496C77.3932 54.601 76.9434 54.626 76.4858 54.626C75.3166 54.626 74.2995 54.4518 73.4344 54.1048C72.5699 53.7574 71.8572 53.2745 71.2987 52.6547C70.739 52.0366 70.3227 51.3074 70.052 50.468C69.7807 49.6292 69.6455 48.7099 69.6455 47.7086Z" fill="#424242"/>
<path d="M93.1684 47.6074C93.1684 46.302 92.9104 45.2679 92.3927 44.5041C91.8757 43.7425 91.0577 43.3606 89.9396 43.3606C89.4303 43.3606 88.9516 43.4363 88.5018 43.5891C88.053 43.7425 87.6923 43.9114 87.4216 44.0976V51.7527C87.6416 51.8034 87.9253 51.8502 88.273 51.8925C88.6204 51.9347 89.0403 51.9562 89.532 51.9562C90.6681 51.9562 91.5579 51.5704 92.2019 50.7989C92.8464 50.0274 93.1684 48.9638 93.1684 47.6074ZM96.3216 47.6581C96.3216 48.7259 96.165 49.6889 95.8514 50.5445C95.5375 51.4011 95.0894 52.1339 94.5038 52.7442C93.9192 53.3542 93.2114 53.8212 92.38 54.1429C91.5498 54.4649 90.609 54.6258 89.5577 54.6258C88.5402 54.6258 87.5702 54.5498 86.6459 54.397C85.7217 54.2443 84.9544 54.075 84.3438 53.8884V35.0699L85.2099 34.927C86.3686 34.7355 87.4216 35.6284 87.4216 36.8022V41.4527C87.7768 41.2668 88.2132 41.0968 88.7309 40.9441C89.2483 40.7924 89.8199 40.7153 90.4474 40.7153C91.3805 40.7153 92.215 40.8811 92.952 41.2112C93.69 41.5424 94.3049 42.0126 94.7966 42.6226C95.2879 43.2329 95.6645 43.9664 95.9281 44.8227C96.1896 45.6793 96.3216 46.6243 96.3216 47.6581Z" fill="#424242"/>
<path d="M109.765 53.8883C109.172 54.0418 108.4 54.1984 107.451 54.3592C106.501 54.5194 105.458 54.6007 104.323 54.6007C103.255 54.6007 102.361 54.4483 101.64 54.1428C100.919 53.8376 100.343 53.4135 99.9106 52.8711C99.4784 52.3291 99.169 51.6808 98.9824 50.9259C98.7952 50.1723 98.7026 49.3452 98.7026 48.4463V40.9953H99.8789C100.928 40.9953 101.78 41.8467 101.78 42.8966V47.9634C101.78 49.3875 101.987 50.4046 102.403 51.0146C102.818 51.6252 103.543 51.9311 104.577 51.9311C104.95 51.9311 105.344 51.9138 105.76 51.8797C106.175 51.8462 106.484 51.8033 106.688 51.753V40.9953H109.765V53.8883Z" fill="#424242"/>
<path d="M112.455 41.4276C113.048 41.2583 113.82 41.0968 114.77 40.9447C115.718 40.792 116.77 40.716 117.923 40.716C119.007 40.716 119.915 40.8641 120.644 41.1605C121.373 41.4576 121.953 41.8732 122.385 42.4064C122.818 42.9407 123.124 43.5855 123.302 44.3394C123.48 45.0936 123.569 45.9207 123.569 46.8193V54.2956H122.392C121.342 54.2956 120.491 53.4442 120.491 52.3947V47.3018C120.491 46.5895 120.445 45.9837 120.352 45.4843C120.258 44.9842 120.105 44.577 119.894 44.2634C119.682 43.9498 119.393 43.7206 119.029 43.5763C118.665 43.4327 118.219 43.3606 117.694 43.3606C117.303 43.3606 116.897 43.3856 116.473 43.437C116.05 43.4877 115.736 43.5299 115.533 43.5637V54.2956H114.356C113.306 54.2956 112.455 53.4442 112.455 52.3947V41.4276Z" fill="#424242"/>
<path d="M41.7 25.4167C37.5423 17.6511 33.5585 12.9437 21.8608 0C10.1641 12.9437 6.18028 17.6511 2.02224 25.4167C-2.13546 33.1831 0.375067 43.2245 7.19956 48.4799C14.0244 53.7361 21.8608 59 21.8608 59C21.8608 59 29.6972 53.7361 36.5223 48.4799C43.3472 43.2245 45.8574 33.1831 41.7 25.4167Z" fill="#FFCD2F"/>
<path d="M7.53564 47.2152C5.32779 42.2219 5.24544 36.2974 7.91505 31.3091C10.5723 26.3457 13.1631 22.6276 17.7407 17.211C19.2179 15.4628 25.6763 8.36097 27.5336 6.32242C25.8664 4.44226 23.9933 2.35971 21.8611 0.000175476C10.1644 12.9442 6.18059 17.6509 2.02254 25.4166C-2.1348 33.1829 0.375374 43.2243 7.20057 48.4801C7.76441 48.9151 8.33669 49.3498 8.91004 49.782C8.38667 48.9634 7.92737 48.1032 7.53564 47.2152Z" fill="#6DBD46"/>
<path d="M41.7002 25.4167C39.1193 20.5977 36.6042 16.9546 32.2737 11.7913L32.273 11.792C33.8255 14.0196 35.139 16.1904 36.469 18.6749C39.9795 25.2316 38.7364 33.4101 34.156 38.9619C33.1617 40.3215 31.9837 41.5509 30.6335 42.5909C27.2449 45.2003 14.6782 54.0025 14.6775 54.0032H14.6768C18.7162 56.8868 21.861 59 21.861 59C21.861 59 29.6973 53.7361 36.5225 48.4799C43.3474 43.2244 45.8575 33.183 41.7002 25.4167Z" fill="#2F9BD6"/>
<path d="M41.7002 25.4167C39.1193 20.5977 36.6042 16.9546 32.2737 11.7913L32.273 11.792C33.8255 14.0196 35.139 16.1904 36.469 18.6749C39.9795 25.2316 38.7364 33.4101 34.156 38.9619C33.1617 40.3215 31.9837 41.5509 30.6335 42.5909C27.2449 45.2003 14.6782 54.0025 14.6775 54.0032H14.6768C18.7162 56.8868 21.861 59 21.861 59C21.861 59 29.6973 53.7361 36.5225 48.4799C43.3474 43.2244 45.8575 33.183 41.7002 25.4167Z" fill="#2F9BD6"/>
</svg>
