<svg width="7" height="12" viewBox="0 0 7 12" fill="none" xmlns="http://www.w3.org/2000/svg">
<path d="M1.3625 11.7571L7 5.9975L1.3625 0.237927C1.20885 0.0814608 1.00269 -0.00407051 0.789378 0.000148737C0.576068 0.00436798 0.373081 0.0979922 0.22507 0.260425C0.0770597 0.422858 -0.00384953 0.640794 0.000141583 0.86629C0.0041327 1.09179 0.0926976 1.30637 0.246353 1.46284L4.6873 5.9975L0.246352 10.5372C0.0926972 10.6936 0.00413227 10.9082 0.000141133 11.1337C-0.00385 11.3592 0.0770592 11.5771 0.225069 11.7396C0.37308 11.902 0.576068 11.9956 0.789378 11.9999C1.00269 12.0041 1.20885 11.9185 1.3625 11.7621L1.3625 11.7571Z" fill="#7F8C8D"/>
</svg>
