<svg width="16" height="21" viewBox="0 0 16 21" fill="none" xmlns="http://www.w3.org/2000/svg">
<path d="M15.6877 15.5965L14.3274 14.2362V8.96352C14.3274 5.72611 12.5979 3.01596 9.58198 2.29888V1.5818C9.58198 0.706536 8.87544 0 8.00018 0C7.12492 0 6.41838 0.706536 6.41838 1.5818V2.29888C3.39188 3.01596 1.67299 5.71556 1.67299 8.96352V14.2362L0.312645 15.5965C-0.35171 16.2609 0.112283 17.3998 1.05082 17.3998H14.939C15.8881 17.3998 16.3521 16.2609 15.6877 15.5965ZM12.2183 15.2907H3.78205V8.96352C3.78205 6.34828 5.3744 4.21813 8.00018 4.21813C10.626 4.21813 12.2183 6.34828 12.2183 8.96352V15.2907ZM8.00018 20.5634C9.16016 20.5634 10.1092 19.6143 10.1092 18.4543H5.89112C5.89112 19.0137 6.11332 19.5501 6.50885 19.9456C6.90437 20.3412 7.44082 20.5634 8.00018 20.5634Z" fill="#038575"/>
</svg>
