<svg width="18" height="18" viewBox="0 0 18 18" fill="none" xmlns="http://www.w3.org/2000/svg">
<path d="M3.25 0C2.38805 0 1.5614 0.34241 0.951903 0.951903C0.34241 1.5614 0 2.38805 0 3.25V14.75C0 15.612 0.34241 16.4386 0.951903 17.0481C1.5614 17.6576 2.38805 18 3.25 18H14.75C15.612 18 16.4386 17.6576 17.0481 17.0481C17.6576 16.4386 18 15.612 18 14.75V3.25C18 2.38805 17.6576 1.5614 17.0481 0.951903C16.4386 0.34241 15.612 0 14.75 0H3.25ZM1.5 3.25C1.5 2.284 2.284 1.5 3.25 1.5H14.75C15.716 1.5 16.5 2.284 16.5 3.25V5.5H1.5V3.25ZM7 7H11V11H7V7ZM5.5 7V11H1.5V7H5.5ZM5.5 12.5V16.5H3.25C2.78587 16.5 2.34075 16.3156 2.01256 15.9874C1.68437 15.6592 1.5 15.2141 1.5 14.75V12.5H5.5ZM7 16.5V12.5H11V16.5H7ZM12.5 11V7H16.5V11H12.5ZM12.5 12.5H16.5V14.75C16.5 15.2141 16.3156 15.6592 15.9874 15.9874C15.6592 16.3156 15.2141 16.5 14.75 16.5H12.5V12.5Z" fill="#4B4B4B"/>
</svg>
