<svg width="32" height="32" viewBox="0 0 32 32" fill="none" xmlns="http://www.w3.org/2000/svg">
<path opacity="0.4" d="M27.3333 13.588H23.4799C20.3199 13.588 17.7466 11.0146 17.7466 7.85464V4.0013C17.7466 3.26797 17.1466 2.66797 16.4133 2.66797H10.7599C6.65325 2.66797 3.33325 5.33464 3.33325 10.0946V21.908C3.33325 26.668 6.65325 29.3346 10.7599 29.3346H21.2399C25.3466 29.3346 28.6666 26.668 28.6666 21.908V14.9213C28.6666 14.188 28.0666 13.588 27.3333 13.588Z" fill="#9E9E9E"/>
<path d="M12.5642 21.2321H10.8309V19.4372C10.8309 19.0167 10.4821 18.668 10.0616 18.668C9.64111 18.668 9.29239 19.0167 9.29239 19.4372V21.2321H7.43598C7.01547 21.2321 6.66675 21.5808 6.66675 22.0013C6.66675 22.4218 7.01547 22.7705 7.43598 22.7705H9.29239V24.5654C9.29239 24.9859 9.64111 25.3346 10.0616 25.3346C10.4821 25.3346 10.8309 24.9859 10.8309 24.5654V22.7705H12.5642C12.9847 22.7705 13.3334 22.4218 13.3334 22.0013C13.3334 21.5808 12.9847 21.2321 12.5642 21.2321Z" fill="#9E9E9E"/>
<path d="M21.0666 2.94731C20.5199 2.40064 19.5732 2.77398 19.5732 3.53398V8.18731C19.5732 10.134 21.2266 11.7473 23.2399 11.7473C24.5066 11.7606 26.2666 11.7606 27.7732 11.7606C28.5332 11.7606 28.9332 10.8673 28.3999 10.334C26.4799 8.40064 23.0399 4.92064 21.0666 2.94731Z" fill="#9E9E9E"/>
</svg>
