<svg width="64" height="64" viewBox="0 0 64 64" fill="none" xmlns="http://www.w3.org/2000/svg">
<path d="M35.8133 39.9999H11.7333C6.87996 39.9999 3.78662 34.7999 6.13329 30.5332L12.3466 19.2265L18.16 8.63984C20.5866 4.23984 26.9333 4.23984 29.36 8.63984L35.2 19.2265L38 24.3199L41.4133 30.5332C43.76 34.7999 40.6666 39.9999 35.8133 39.9999Z" fill="white"/>
<path opacity="0.4" d="M58.6667 41.3333C58.6667 50.9067 50.9067 58.6667 41.3333 58.6667C31.76 58.6667 24 50.9067 24 41.3333C24 40.88 24.0267 40.4533 24.0533 40H35.8133C40.6667 40 43.76 34.8 41.4133 30.5334L38 24.32C39.0667 24.1067 40.1867 24 41.3333 24C50.9067 24 58.6667 31.76 58.6667 41.3333Z" fill="white"/>
</svg>
