<svg width="10" height="12" viewBox="0 0 10 12" fill="none" xmlns="http://www.w3.org/2000/svg">
<path fill-rule="evenodd" clip-rule="evenodd" d="M0.575058 10.3499H8.62502C8.94258 10.3499 9.20001 10.6074 9.20001 10.9249C9.20001 11.2425 8.94258 11.4999 8.62502 11.4999H0.575058C0.257496 11.4999 6.10352e-05 11.2425 6.10352e-05 10.9249C6.10352e-05 10.6074 0.257496 10.3499 0.575058 10.3499ZM6.10352e-05 7.47496C6.10352e-05 7.47496 1.91666 5.5583 5.74986 1.72499L7.47502 3.44998C3.64171 7.28329 1.72505 9.19995 1.72505 9.19995C1.34781 9.19995 0.772814 9.19995 6.10352e-05 9.19995C6.10352e-05 8.40105 6.10352e-05 7.82605 6.10352e-05 7.47496ZM6.32503 1.14999L7.47485 0L9.20001 1.72499L8.04943 2.87557L6.32503 1.14999Z" fill="#A0A3AF"/>
</svg>
