<svg width="20" height="17" viewBox="0 0 20 17" fill="none" xmlns="http://www.w3.org/2000/svg">
<path d="M12.1329 5.51496C12.1329 6.1216 11.6366 6.61795 11.0299 6.61795H1.10299C0.496346 6.61795 0 6.1216 0 5.51496C0 4.90831 0.496346 4.41197 1.10299 4.41197H11.0299C11.6366 4.41197 12.1329 4.90831 12.1329 5.51496ZM0 1.10299C0 1.70964 0.496346 2.20598 1.10299 2.20598H11.0299C11.6366 2.20598 12.1329 1.70964 12.1329 1.10299C12.1329 0.496346 11.6366 0 11.0299 0H1.10299C0.496346 0 0 0.496346 0 1.10299ZM7.72094 9.92693C7.72094 9.32028 7.2246 8.82393 6.61795 8.82393H1.10299C0.496346 8.82393 0 9.32028 0 9.92693C0 10.5336 0.496346 11.0299 1.10299 11.0299H6.61795C7.2246 11.0299 7.72094 10.5336 7.72094 9.92693ZM16.5559 7.57755L17.339 6.79443C17.4411 6.69218 17.5623 6.61106 17.6957 6.55571C17.8291 6.50036 17.9722 6.47187 18.1166 6.47187C18.2611 6.47187 18.4041 6.50036 18.5376 6.55571C18.671 6.61106 18.7922 6.69218 18.8943 6.79443L19.6774 7.57755C20.1075 8.00772 20.1075 8.70261 19.6774 9.13277L18.8943 9.9159L16.5559 7.57755ZM15.7728 8.36068L10.0813 14.0521C9.98208 14.1514 9.92693 14.2837 9.92693 14.4382V15.9934C9.92693 16.3022 10.1696 16.5449 10.4784 16.5449H12.0336C12.177 16.5449 12.3204 16.4897 12.4197 16.3794L18.1111 10.688L15.7728 8.36068Z" fill="#4B4B4B"/>
</svg>
