<svg width="24" height="24" viewBox="0 0 24 24" fill="none" xmlns="http://www.w3.org/2000/svg">
<path opacity="0.4" d="M7.18975 15.0029L16.7897 15.0029C19.9897 15.0029 21.9897 13.0029 21.9897 9.80293L21.9897 7.21293C21.9897 4.00293 19.9897 2.00293 16.7897 2.00293L7.19975 2.00293C3.99975 2.00293 1.99975 4.00293 1.99975 7.20293L1.99975 9.80293C1.98975 13.0029 3.98975 15.0029 7.18975 15.0029Z" fill="#9E9E9E"/>
<path d="M8.1099 18.4325L11.4599 21.7825C11.7499 22.0725 12.2299 22.0725 12.5199 21.7825L15.8699 18.4325C16.1599 18.1425 16.1599 17.6625 15.8699 17.3725C15.5799 17.0825 15.0999 17.0825 14.8099 17.3725L12.7399 19.4425L12.7399 8.7525C12.7399 8.3425 12.3999 8.0025 11.9899 8.0025C11.5799 8.0025 11.2399 8.3425 11.2399 8.7525L11.2399 19.4425L9.1699 17.3725C9.0199 17.2225 8.8299 17.1525 8.6399 17.1525C8.4499 17.1525 8.2599 17.2225 8.1099 17.3725C7.8099 17.6625 7.8099 18.1325 8.1099 18.4325Z" fill="#9E9E9E"/>
</svg>
