<svg width="12" height="8" viewBox="0 0 12 8" fill="none" xmlns="http://www.w3.org/2000/svg">
<path fill-rule="evenodd" clip-rule="evenodd" d="M0 3.75C0 3.75 2.25 0 6 0C9.75 0 12 3.75 12 3.75C12 3.75 9.75 7.5 6 7.5C2.25 7.5 0 3.75 0 3.75ZM6 6.13636C6.69619 6.13636 7.36387 5.88494 7.85616 5.43741C8.34844 4.98988 8.625 4.3829 8.625 3.75C8.625 3.1171 8.34844 2.51012 7.85616 2.06259C7.36387 1.61506 6.69619 1.36364 6 1.36364C5.30381 1.36364 4.63613 1.61506 4.14384 2.06259C3.65156 2.51012 3.375 3.1171 3.375 3.75C3.375 4.3829 3.65156 4.98988 4.14384 5.43741C4.63613 5.88494 5.30381 6.13636 6 6.13636Z" fill="#A0A3AF"/>
</svg>
