<svg width="40" height="40" viewBox="0 0 40 40" fill="none" xmlns="http://www.w3.org/2000/svg">
<rect width="40" height="40" rx="4" fill="#E0E0E0"/>
<path d="M8 16.05C8 13.2025 8 11.7788 8.56293 10.6951C9.03731 9.78191 9.78191 9.03731 10.6951 8.56293C11.7788 8 13.2025 8 16.05 8H23.95C26.7975 8 28.2212 8 29.3049 8.56293C30.2181 9.03731 30.9627 9.78191 31.4371 10.6951C32 11.7788 32 13.2025 32 16.05V23.95C32 26.7975 32 28.2212 31.4371 29.3049C30.9627 30.2181 30.2181 30.9627 29.3049 31.4371C28.2212 32 26.7975 32 23.95 32H16.05C13.2025 32 11.7788 32 10.6951 31.4371C9.78191 30.9627 9.03731 30.2181 8.56293 29.3049C8 28.2212 8 26.7975 8 23.95V16.05Z" fill="url(#paint0_linear_196_39739)"/>
<path d="M24.6667 23.3327L25.2 19.9993H22V17.666C22 16.7327 22.3333 15.9993 23.8 15.9993H25.3333V12.9327C24.4667 12.7993 23.5333 12.666 22.6667 12.666C19.9333 12.666 18 14.3327 18 17.3327V19.9993H15V23.3327H18V31.9993C19.3333 31.9993 20.6667 31.9993 22 31.9993V23.3327H24.6667Z" fill="white"/>
<defs>
<linearGradient id="paint0_linear_196_39739" x1="20" y1="31.2988" x2="20" y2="8" gradientUnits="userSpaceOnUse">
<stop stop-color="#0062E0"/>
<stop offset="1" stop-color="#19AFFF"/>
</linearGradient>
</defs>
</svg>
