<svg width="24" height="24" viewBox="0 0 24 24" fill="none" xmlns="http://www.w3.org/2000/svg">
<path opacity="0.4" d="M20.6001 4.10156V6.30156C20.6001 7.10156 20.1001 8.10156 19.6001 8.60156L15.3001 12.4016C14.7001 12.9016 14.3001 13.9016 14.3001 14.7016V19.0016C14.3001 19.6016 13.9001 20.4016 13.4001 20.7016L12.0001 21.6016C10.7001 22.4016 8.9001 21.5016 8.9001 19.9016V14.6016C8.9001 13.9016 8.5001 13.0016 8.1001 12.5016L7.1001 11.4516L12.9201 2.10156H18.6001C19.7001 2.10156 20.6001 3.00156 20.6001 4.10156Z" fill="#9E9E9E"/>
<path d="M11.2999 2.10156L6.1199 10.4116L4.2999 8.50156C3.7999 8.00156 3.3999 7.10156 3.3999 6.50156V4.20156C3.3999 3.00156 4.2999 2.10156 5.3999 2.10156H11.2999Z" fill="#9E9E9E"/>
</svg>
