<svg width="16" height="16" viewBox="0 0 16 16" fill="none" xmlns="http://www.w3.org/2000/svg">
<path opacity="0.4" d="M4.79996 10L11.2 10C13.3333 10 14.6666 8.66667 14.6666 6.53333L14.6666 4.80667C14.6666 2.66667 13.3333 1.33333 11.2 1.33333L4.80662 1.33333C2.67329 1.33333 1.33996 2.66667 1.33996 4.8L1.33996 6.53333C1.33329 8.66667 2.66663 10 4.79996 10Z" fill="#038575"/>
<path d="M5.41336 12.2867L7.64669 14.52C7.84002 14.7133 8.16002 14.7133 8.35336 14.52L10.5867 12.2867C10.78 12.0933 10.78 11.7733 10.5867 11.58C10.3934 11.3867 10.0734 11.3867 9.88002 11.58L8.50002 12.96L8.50002 5.83334C8.50002 5.56001 8.27335 5.33334 8.00002 5.33334C7.72669 5.33334 7.50002 5.56001 7.50002 5.83334L7.50002 12.96L6.12002 11.58C6.02002 11.48 5.89336 11.4333 5.76669 11.4333C5.64002 11.4333 5.51336 11.48 5.41336 11.58C5.21336 11.7733 5.21336 12.0867 5.41336 12.2867Z" fill="#038575"/>
</svg>
