<svg width="57" height="64" viewBox="0 0 57 64" fill="none" xmlns="http://www.w3.org/2000/svg">
<path d="M44 -11C19.756 -11 0 8.756 0 33C0 57.244 19.756 77 44 77C68.244 77 88 57.244 88 33C88 8.756 68.244 -11 44 -11ZM40.7 15.4C40.7 13.596 42.196 12.1 44 12.1C45.804 12.1 47.3 13.596 47.3 15.4V37.4C47.3 39.204 45.804 40.7 44 40.7C42.196 40.7 40.7 39.204 40.7 37.4V15.4ZM48.048 52.272C47.828 52.844 47.52 53.284 47.124 53.724C46.684 54.12 46.2 54.428 45.672 54.648C45.144 54.868 44.572 55 44 55C43.428 55 42.856 54.868 42.328 54.648C41.8 54.428 41.316 54.12 40.876 53.724C40.48 53.284 40.172 52.844 39.952 52.272C39.732 51.744 39.6 51.172 39.6 50.6C39.6 50.028 39.732 49.456 39.952 48.928C40.172 48.4 40.48 47.916 40.876 47.476C41.316 47.08 41.8 46.772 42.328 46.552C43.384 46.112 44.616 46.112 45.672 46.552C46.2 46.772 46.684 47.08 47.124 47.476C47.52 47.916 47.828 48.4 48.048 48.928C48.268 49.456 48.4 50.028 48.4 50.6C48.4 51.172 48.268 51.744 48.048 52.272Z" fill="#3267E3" fill-opacity="0.06"/>
</svg>
