<svg width="40" height="40" viewBox="0 0 40 40" fill="none" xmlns="http://www.w3.org/2000/svg">
<rect width="40" height="40" rx="4" fill="#E0E0E0"/>
<g clip-path="url(#clip0_196_39683)">
<path d="M8.01367 16.05C8.01367 13.2025 8.01367 11.7788 8.5766 10.6951C9.05098 9.78191 9.79558 9.03731 10.7088 8.56293C11.7925 8 13.2162 8 16.0637 8H23.9637C26.8111 8 28.2349 8 29.3185 8.56293C30.2318 9.03731 30.9764 9.78191 31.4507 10.6951C32.0137 11.7788 32.0137 13.2025 32.0137 16.05V23.95C32.0137 26.7975 32.0137 28.2212 31.4507 29.3049C30.9764 30.2181 30.2318 30.9627 29.3185 31.4371C28.2349 32 26.8111 32 23.9637 32H16.0637C13.2162 32 11.7925 32 10.7088 31.4371C9.79558 30.9627 9.05098 30.2181 8.5766 29.3049C8.01367 28.2212 8.01367 26.7975 8.01367 23.95V16.05Z" fill="url(#paint0_radial_196_39683)"/>
<path d="M8.01367 16.05C8.01367 13.2025 8.01367 11.7788 8.5766 10.6951C9.05098 9.78191 9.79558 9.03731 10.7088 8.56293C11.7925 8 13.2162 8 16.0637 8H23.9637C26.8111 8 28.2349 8 29.3185 8.56293C30.2318 9.03731 30.9764 9.78191 31.4507 10.6951C32.0137 11.7788 32.0137 13.2025 32.0137 16.05V23.95C32.0137 26.7975 32.0137 28.2212 31.4507 29.3049C30.9764 30.2181 30.2318 30.9627 29.3185 31.4371C28.2349 32 26.8111 32 23.9637 32H16.0637C13.2162 32 11.7925 32 10.7088 31.4371C9.79558 30.9627 9.05098 30.2181 8.5766 29.3049C8.01367 28.2212 8.01367 26.7975 8.01367 23.95V16.05Z" fill="url(#paint1_radial_196_39683)"/>
<path d="M20.0004 11.2734C17.6303 11.2734 17.3329 11.2838 16.402 11.3262C15.4729 11.3687 14.8388 11.5158 14.2839 11.7316C13.7099 11.9545 13.223 12.2527 12.7379 12.738C12.2525 13.2231 11.9543 13.71 11.7307 14.2838C11.5143 14.8389 11.3671 15.4733 11.3252 16.402C11.2836 17.3329 11.2727 17.6305 11.2727 20.0007C11.2727 22.3709 11.2833 22.6674 11.3254 23.5983C11.3682 24.5274 11.5152 25.1616 11.7309 25.7165C11.954 26.2905 12.2521 26.7774 12.7374 27.2625C13.2223 27.748 13.7092 28.0469 14.2828 28.2698C14.8381 28.4856 15.4724 28.6327 16.4013 28.6753C17.3322 28.7176 17.6294 28.728 19.9993 28.728C22.3696 28.728 22.6662 28.7176 23.5971 28.6753C24.5261 28.6327 25.161 28.4856 25.7163 28.2698C26.2901 28.0469 26.7762 27.748 27.2611 27.2625C27.7466 26.7774 28.0447 26.2905 28.2684 25.7167C28.4829 25.1616 28.6302 24.5273 28.6738 23.5985C28.7156 22.6676 28.7265 22.3709 28.7265 20.0007C28.7265 17.6305 28.7156 17.3331 28.6738 16.4022C28.6302 15.4731 28.4829 14.8389 28.2684 14.284C28.0447 13.71 27.7466 13.2231 27.2611 12.738C26.7757 12.2525 26.2903 11.9543 25.7157 11.7316C25.1594 11.5158 24.5248 11.3687 23.5958 11.3262C22.6649 11.2838 22.3686 11.2734 19.9977 11.2734H20.0004ZM19.2176 12.8462C19.4499 12.8458 19.7092 12.8462 20.0004 12.8462C22.3306 12.8462 22.6067 12.8545 23.5269 12.8963C24.3778 12.9353 24.8396 13.0774 25.1472 13.1969C25.5545 13.3551 25.8448 13.5442 26.1501 13.8496C26.4555 14.1551 26.6446 14.446 26.8031 14.8533C26.9226 15.1605 27.065 15.6223 27.1037 16.4733C27.1455 17.3933 27.1546 17.6696 27.1546 19.9987C27.1546 22.3278 27.1455 22.6042 27.1037 23.5242C27.0648 24.3751 26.9226 24.8369 26.8031 25.1442C26.645 25.5514 26.4555 25.8414 26.1501 26.1467C25.8446 26.4522 25.5546 26.6413 25.1472 26.7994C24.8399 26.9194 24.3778 27.0613 23.5269 27.1002C22.6069 27.142 22.3306 27.1511 20.0004 27.1511C17.6701 27.1511 17.394 27.142 16.474 27.1002C15.6231 27.0609 15.1613 26.9187 14.8535 26.7993C14.4462 26.6411 14.1553 26.452 13.8499 26.1465C13.5445 25.8411 13.3554 25.5509 13.1968 25.1434C13.0774 24.8362 12.935 24.3743 12.8963 23.5234C12.8545 22.6034 12.8461 22.3271 12.8461 19.9965C12.8461 17.666 12.8545 17.3911 12.8963 16.4711C12.9352 15.6202 13.0774 15.1583 13.1968 14.8507C13.355 14.4434 13.5445 14.1525 13.8499 13.8471C14.1553 13.5416 14.4462 13.3525 14.8535 13.194C15.1611 13.074 15.6231 12.9322 16.474 12.8931C17.2791 12.8567 17.5911 12.8458 19.2176 12.844V12.8462ZM24.6588 14.2953C24.0807 14.2953 23.6116 14.7638 23.6116 15.3422C23.6116 15.9203 24.0807 16.3894 24.6588 16.3894C25.237 16.3894 25.7061 15.9203 25.7061 15.3422C25.7061 14.764 25.237 14.2949 24.6588 14.2949V14.2953ZM20.0004 15.5189C17.5254 15.5189 15.5188 17.5256 15.5188 20.0007C15.5188 22.4758 17.5254 24.4816 20.0004 24.4816C22.4755 24.4816 24.4814 22.4758 24.4814 20.0007C24.4814 17.5256 22.4753 15.5189 20.0003 15.5189H20.0004ZM20.0004 17.0916C21.6069 17.0916 22.9094 18.394 22.9094 20.0007C22.9094 21.6073 21.6069 22.9098 20.0004 22.9098C18.3938 22.9098 17.0914 21.6073 17.0914 20.0007C17.0914 18.394 18.3938 17.0916 20.0004 17.0916Z" fill="white"/>
</g>
<defs>
<radialGradient id="paint0_radial_196_39683" cx="0" cy="0" r="1" gradientUnits="userSpaceOnUse" gradientTransform="translate(14.3887 33.8485) rotate(-90) scale(23.7858 22.1226)">
<stop stop-color="#FFDD55"/>
<stop offset="0.1" stop-color="#FFDD55"/>
<stop offset="0.5" stop-color="#FF543E"/>
<stop offset="1" stop-color="#C837AB"/>
</radialGradient>
<radialGradient id="paint1_radial_196_39683" cx="0" cy="0" r="1" gradientUnits="userSpaceOnUse" gradientTransform="translate(3.99354 9.72892) rotate(78.6806) scale(10.6323 43.827)">
<stop stop-color="#3771C8"/>
<stop offset="0.128" stop-color="#3771C8"/>
<stop offset="1" stop-color="#6600FF" stop-opacity="0"/>
</radialGradient>
<clipPath id="clip0_196_39683">
<rect width="24" height="24" fill="white" transform="translate(8 8)"/>
</clipPath>
</defs>
</svg>
