<svg width="24" height="24" viewBox="0 0 24 24" fill="none" xmlns="http://www.w3.org/2000/svg">
<path d="M17.25 10.05L13.575 13.725C13.425 13.875 13.2 13.95 13.05 13.95C12.9 13.95 12.675 13.875 12.525 13.725C12.225 13.425 12.225 12.975 12.525 12.675L16.2 9C15.075 8.1 13.575 7.5 12 7.5C8.25 7.5 5.25 10.5 5.25 14.25C5.25 18 8.25 21 12 21C15.75 21 18.75 18 18.75 14.25C18.75 12.675 18.225 11.175 17.25 10.05Z" fill="#9E9E9E" fill-opacity="0.4"/>
<path d="M12 6C11.55 6 11.25 5.7 11.25 5.25V3.75C11.25 3.3 11.55 3 12 3C12.45 3 12.75 3.3 12.75 3.75V5.25C12.75 5.7 12.45 6 12 6Z" fill="#9E9E9E"/>
<path d="M7.49987 7.2C7.27487 7.2 6.97487 7.05 6.82487 6.825L6.07487 5.55C5.92487 5.175 5.99987 4.725 6.37487 4.5C6.74987 4.275 7.19987 4.425 7.42487 4.8L8.17487 6.075C8.39987 6.45 8.24987 6.9 7.87487 7.125C7.72487 7.2 7.64987 7.2 7.49987 7.2Z" fill="#9E9E9E"/>
<path d="M4.19976 10.5001C4.04976 10.5001 3.97476 10.5001 3.82476 10.4251L2.54976 9.67512C2.17476 9.45012 2.02476 9.00012 2.24976 8.62512C2.47476 8.25012 2.92476 8.17512 3.29976 8.32512L4.57476 9.07512C4.94976 9.30012 5.02476 9.75012 4.87476 10.1251C4.72476 10.3501 4.49976 10.5001 4.19976 10.5001Z" fill="#9E9E9E"/>
<path d="M3 15H1.5C1.05 15 0.75 14.7 0.75 14.25C0.75 13.8 1.05 13.5 1.5 13.5H3C3.45 13.5 3.75 13.8 3.75 14.25C3.75 14.7 3.45 15 3 15Z" fill="#9E9E9E"/>
<path d="M22.5 15H21C20.55 15 20.25 14.7 20.25 14.25C20.25 13.8 20.55 13.5 21 13.5H22.5C22.95 13.5 23.25 13.8 23.25 14.25C23.25 14.7 22.95 15 22.5 15Z" fill="#9E9E9E"/>
<path d="M19.7998 10.5C19.5748 10.5 19.2748 10.35 19.1248 10.125C18.8998 9.74995 19.0498 9.29995 19.4248 9.07495L20.6998 8.32495C21.0748 8.09995 21.5248 8.24995 21.7498 8.62495C21.9748 8.99995 21.8248 9.44995 21.4498 9.67495L20.1748 10.425C20.0248 10.5 19.9498 10.5 19.7998 10.5Z" fill="#9E9E9E"/>
<path d="M16.4999 7.2C16.3499 7.2 16.2749 7.2 16.1249 7.125C15.7499 6.9 15.6749 6.45 15.8249 6.075L16.5749 4.8C16.7999 4.425 17.2499 4.275 17.6249 4.5C17.9999 4.725 18.0749 5.175 17.9249 5.55L17.1749 6.825C17.0249 7.05 16.7249 7.2 16.4999 7.2Z" fill="#9E9E9E"/>
</svg>
