<svg width="64" height="64" viewBox="0 0 64 64" fill="none" xmlns="http://www.w3.org/2000/svg">
<path d="M41.3865 7.7335C39.7865 6.1335 37.4665 5.3335 34.4799 5.3335H19.5999C13.5999 5.3335 10.2932 8.64016 10.2932 14.6402C10.2932 17.6268 11.0932 19.9468 12.6932 21.5468C14.2932 23.1468 16.6132 23.9468 19.5999 23.9468H34.4799C40.4799 23.9468 43.7865 20.6402 43.7865 14.6402C43.7865 11.6535 42.9865 9.3335 41.3865 7.7335Z" fill="white"/>
<path opacity="0.4" d="M28.2667 40.0532H25.7867C23.2534 40.0532 20.2134 41.0132 20.2134 45.6266V53.0666C20.2134 57.6799 23.2534 58.6399 25.7867 58.6399H28.2667C30.8 58.6399 33.84 57.6799 33.84 53.0666V45.6266C33.8667 41.0399 30.8267 40.0532 28.2667 40.0532Z" fill="white"/>
<path opacity="0.4" d="M44.4 12.7734H43.6533C43.7333 13.3601 43.7866 13.9734 43.7866 14.6401C43.7866 15.3068 43.7333 15.9201 43.6533 16.5068H44.4C49.9733 16.5068 49.9733 17.2534 49.9733 22.0801V27.0401C49.9733 31.8668 49.9733 32.6134 44.4 32.6134H34.48C26.5066 32.6134 25.36 36.4001 25.2 40.0801C25.3866 40.0801 25.6 40.0534 25.7866 40.0534H28.2666C28.48 40.0534 28.6933 40.0801 28.9333 40.0801C29.0666 37.3868 29.84 36.3201 34.48 36.3201H44.4C53.0666 36.3201 53.7066 32.8001 53.7066 27.0134V22.0801C53.7066 16.2934 53.0666 12.7734 44.4 12.7734Z" fill="white"/>
</svg>
