<svg width="64" height="64" viewBox="0 0 64 64" fill="none" xmlns="http://www.w3.org/2000/svg">
<path opacity="0.4" d="M30.6666 56.0002C44.6578 56.0002 55.9999 44.658 55.9999 30.6668C55.9999 16.6756 44.6578 5.3335 30.6666 5.3335C16.6754 5.3335 5.33325 16.6756 5.33325 30.6668C5.33325 44.658 16.6754 56.0002 30.6666 56.0002Z" fill="white"/>
<path d="M56.8001 58.6665C56.3201 58.6665 55.8401 58.4798 55.4934 58.1332L50.5334 53.1732C49.8134 52.4532 49.8134 51.2798 50.5334 50.5332C51.2534 49.8132 52.4267 49.8132 53.1734 50.5332L58.1334 55.4932C58.8534 56.2132 58.8534 57.3865 58.1334 58.1332C57.7601 58.4798 57.2801 58.6665 56.8001 58.6665Z" fill="white"/>
<path d="M35.3866 23.7067C33.7066 23.1734 31.9199 23.4934 30.6399 24.48C29.3332 23.4934 27.5999 23.1734 25.9199 23.7067C22.2932 24.88 21.1466 29.0134 22.1599 32.16C23.7066 36.9867 28.7999 39.4934 30.6399 39.4934C32.4266 39.4934 37.6266 36.9334 39.1199 32.16C40.1599 29.0134 39.0132 24.88 35.3866 23.7067Z" fill="white"/>
</svg>
