<svg width="18" height="20" viewBox="0 0 18 20" fill="none" xmlns="http://www.w3.org/2000/svg">
<path d="M13.1947 13.1701L12.894 13.5151L13.211 13.8451L16.7604 17.5393C17.06 17.8511 17.0617 18.3433 16.7643 18.6571C16.4459 18.9931 15.911 18.9943 15.5912 18.6596L11.9262 14.8243L11.6547 14.5401L11.3144 14.7369C10.2597 15.3467 9.04127 15.688 7.7767 15.688C3.78177 15.688 0.5 12.3016 0.5 8.094C0.5 3.88635 3.78177 0.5 7.7767 0.5C11.7737 0.5 15.0785 3.88849 15.0785 8.094C15.0785 10.0581 14.3471 11.8483 13.1947 13.1701ZM2.08387 8.094C2.08387 11.3537 4.597 13.9987 7.7767 13.9987C10.9564 13.9987 13.4695 11.3537 13.4695 8.094C13.4695 4.83428 10.9564 2.1893 7.7767 2.1893C4.597 2.1893 2.08387 4.83428 2.08387 8.094Z" fill="#BFBFBF" stroke="#BFBFBF"/>
</svg>
