<svg width="40" height="40" viewBox="0 0 40 40" fill="none" xmlns="http://www.w3.org/2000/svg">
<rect width="40" height="40" rx="4" fill="#E0E0E0"/>
<path d="M8 16.05C8 13.2025 8 11.7788 8.56293 10.6951C9.03731 9.78191 9.78191 9.03731 10.6951 8.56293C11.7788 8 13.2025 8 16.05 8H23.95C26.7975 8 28.2212 8 29.3049 8.56293C30.2181 9.03731 30.9627 9.78191 31.4371 10.6951C32 11.7788 32 13.2025 32 16.05V23.95C32 26.7975 32 28.2212 31.4371 29.3049C30.9627 30.2181 30.2181 30.9627 29.3049 31.4371C28.2212 32 26.7975 32 23.95 32H16.05C13.2025 32 11.7788 32 10.6951 31.4371C9.78191 30.9627 9.03731 30.2181 8.56293 29.3049C8 28.2212 8 26.7975 8 23.95V16.05Z" fill="black"/>
<path d="M15.2818 22.3707C15.3795 21.562 15.7112 21.1092 16.3362 20.6451C17.2305 20.0165 18.3476 20.3721 18.3476 20.3721V18.2626C18.6192 18.2556 18.8908 18.2717 19.1595 18.3107V21.0254C19.1595 21.0254 18.0427 20.6698 17.1484 21.2987C16.5237 21.7626 16.1914 22.2157 16.0941 23.0244C16.091 23.4635 16.1734 24.0375 16.5529 24.5338C16.4591 24.4857 16.3634 24.4309 16.266 24.3693C15.43 23.808 15.2778 22.9658 15.2818 22.3707ZM23.772 14.3622C23.1568 13.688 22.9241 13.0074 22.84 12.5293H23.6139C23.6139 12.5293 23.4596 13.783 24.5842 15.0158L24.5998 15.0324C24.2967 14.8417 24.0188 14.6167 23.772 14.3622ZM27.5 16.2734V18.9335C27.5 18.9335 26.5125 18.8948 25.7817 18.7089C24.7612 18.4488 24.1053 18.05 24.1053 18.05C24.1053 18.05 23.6523 17.7656 23.6156 17.7458V23.2389C23.6156 23.5447 23.5319 24.3086 23.2765 24.9456C22.9431 25.779 22.4287 26.3261 22.3341 26.4379C22.3341 26.4379 21.7084 27.1773 20.6045 27.6753C19.6095 28.1245 18.7359 28.1131 18.4748 28.1245C18.4748 28.1245 16.9646 28.1843 15.6057 27.3012C15.3119 27.1065 15.0376 26.8861 14.7864 26.6426L14.7932 26.6475C16.1524 27.5306 17.6622 27.4708 17.6622 27.4708C17.9237 27.4595 18.7973 27.4708 19.7919 27.0216C20.8948 26.5237 21.5215 25.7842 21.5215 25.7842C21.6151 25.6724 22.1319 25.1254 22.4639 24.2917C22.7186 23.6549 22.8031 22.8908 22.8031 22.5849V17.0925C22.8397 17.1126 23.2924 17.397 23.2924 17.397C23.2924 17.397 23.9487 17.7962 24.9691 18.0559C25.7003 18.2418 26.6875 18.2805 26.6875 18.2805V16.196C27.0252 16.2717 27.3132 16.2922 27.5 16.2734Z" fill="#FD355A"/>
<path d="M26.6878 16.196V18.2798C26.6878 18.2798 25.7006 18.2411 24.9694 18.0552C23.949 17.7952 23.2928 17.3964 23.2928 17.3964C23.2928 17.3964 22.84 17.112 22.8034 17.0918V22.5856C22.8034 22.8914 22.7196 23.6556 22.4643 24.2923C22.1309 25.126 21.6164 25.6731 21.5218 25.7849C21.5218 25.7849 20.8958 26.5243 19.7923 27.0223C18.7976 27.4715 17.924 27.4601 17.6625 27.4715C17.6625 27.4715 16.1527 27.5313 14.7935 26.6482L14.7867 26.6433C14.6432 26.5043 14.5081 26.3576 14.3821 26.2038C13.9484 25.675 13.6825 25.0496 13.6157 24.8712C13.6156 24.8704 13.6156 24.8697 13.6157 24.8689C13.5082 24.5588 13.2823 23.8142 13.3132 23.0929C13.3678 21.8204 13.8154 21.0394 13.9338 20.8437C14.2472 20.3101 14.6549 19.8327 15.1387 19.4327C15.5656 19.0876 16.0495 18.813 16.5705 18.6201C17.1338 18.3937 17.7369 18.2724 18.3476 18.2626V20.3721C18.3476 20.3721 17.2305 20.0178 16.3365 20.6451C15.7115 21.1092 15.3798 21.562 15.2822 22.3707C15.2781 22.9658 15.4304 23.808 16.2656 24.3697C16.3631 24.4314 16.4587 24.4863 16.5525 24.5341C16.6985 24.7238 16.8761 24.8891 17.0782 25.0233C17.8941 25.5398 18.5778 25.5759 19.4521 25.2404C20.0351 25.0162 20.4739 24.5107 20.6774 23.9507C20.8052 23.601 20.8035 23.249 20.8035 22.8849V12.5293H22.8383C22.9224 13.0074 23.1551 13.688 23.7703 14.3622C24.017 14.6167 24.295 14.8417 24.5981 15.0324C24.6876 15.125 25.1454 15.583 25.7331 15.8642C26.037 16.0095 26.3574 16.1208 26.6878 16.196Z" fill="white"/>
<path d="M12.8057 24.2227V24.2243L12.8562 24.3611C12.8504 24.3452 12.8316 24.2968 12.8057 24.2227Z" fill="#33F3ED"/>
<path d="M16.5705 18.6194C16.0495 18.8122 15.5656 19.0869 15.1387 19.432C14.6548 19.8329 14.2472 20.3113 13.9341 20.8459C13.8158 21.0409 13.3681 21.8226 13.3135 23.0951C13.2826 23.8164 13.5085 24.561 13.616 24.8711C13.6159 24.8719 13.6159 24.8727 13.616 24.8734C13.6838 25.0502 13.9487 25.6756 14.3824 26.2061C14.5084 26.3598 14.6435 26.5065 14.787 26.6455C14.3272 26.3407 13.9172 25.9722 13.5702 25.5521C13.1402 25.0278 12.875 24.4089 12.8058 24.2263C12.8057 24.225 12.8057 24.2237 12.8058 24.2224V24.2201C12.698 23.9103 12.4714 23.1654 12.503 22.4431C12.5576 21.1706 13.0052 20.3896 13.1236 20.1939C13.4366 19.6592 13.8442 19.1808 14.3282 18.78C14.755 18.4347 15.2389 18.1601 15.76 17.9674C16.085 17.8381 16.4236 17.7428 16.7699 17.683C17.2918 17.5957 17.8249 17.5881 18.3492 17.6606V18.2619C17.738 18.2715 17.1343 18.3928 16.5705 18.6194Z" fill="#33F3ED"/>
<path d="M22.8399 12.529H20.8051V22.8849C20.8051 23.2489 20.8051 23.6 20.6789 23.9507C20.4734 24.5104 20.0363 25.0158 19.4537 25.2401C18.579 25.5768 17.8954 25.5395 17.0797 25.023C16.8773 24.8894 16.6992 24.7246 16.5527 24.5354C17.2476 24.8907 17.8696 24.8845 18.6401 24.5881C19.2224 24.3638 19.6602 23.8584 19.865 23.2984C19.9932 22.9486 19.9915 22.5966 19.9915 22.2329V11.875H22.8012C22.8012 11.875 22.7697 12.1324 22.8399 12.529ZM26.6876 15.6194V16.1957C26.3578 16.1204 26.038 16.009 25.7347 15.8638C25.147 15.5827 24.6891 15.1247 24.5996 15.0321C24.7035 15.0974 24.8113 15.1569 24.9225 15.2102C25.637 15.5521 26.3407 15.6542 26.6876 15.6194Z" fill="#33F3ED"/>
</svg>
