<svg width="4" height="18" viewBox="0 0 4 18" fill="none" xmlns="http://www.w3.org/2000/svg">
<path fill-rule="evenodd" clip-rule="evenodd" d="M4 15.6667C4 16.1971 3.78929 16.7058 3.41421 17.0809C3.03914 17.456 2.53043 17.6667 2 17.6667C1.46957 17.6667 0.960859 17.456 0.585786 17.0809C0.210713 16.7058 0 16.1971 0 15.6667C0 15.1362 0.210713 14.6275 0.585786 14.2525C0.960859 13.8774 1.46957 13.6667 2 13.6667C2.53043 13.6667 3.03914 13.8774 3.41421 14.2525C3.78929 14.6275 4 15.1362 4 15.6667ZM4 9.00001C4 9.53044 3.78929 10.0392 3.41421 10.4142C3.03914 10.7893 2.53043 11 2 11C1.46957 11 0.960859 10.7893 0.585786 10.4142C0.210713 10.0392 0 9.53044 0 9.00001C0 8.46958 0.210713 7.96087 0.585786 7.5858C0.960859 7.21072 1.46957 7.00001 2 7.00001C2.53043 7.00001 3.03914 7.21072 3.41421 7.5858C3.78929 7.96087 4 8.46958 4 9.00001ZM4 2.33334C4 2.86378 3.78929 3.37248 3.41421 3.74756C3.03914 4.12263 2.53043 4.33334 2 4.33334C1.46957 4.33334 0.960859 4.12263 0.585786 3.74756C0.210713 3.37248 0 2.86378 0 2.33334C0 1.80291 0.210713 1.2942 0.585786 0.91913C0.960859 0.544057 1.46957 0.333344 2 0.333344C2.53043 0.333344 3.03914 0.544057 3.41421 0.91913C3.78929 1.2942 4 1.80291 4 2.33334Z" fill="#666666"/>
</svg>
