<svg width="40" height="40" viewBox="0 0 40 40" fill="none" xmlns="http://www.w3.org/2000/svg">
<rect width="40" height="40" rx="4" fill="#E0E0E0"/>
<path d="M8 16.05C8 13.2025 8 11.7788 8.56293 10.6951C9.03731 9.78191 9.78191 9.03731 10.6951 8.56293C11.7788 8 13.2025 8 16.05 8H23.95C26.7975 8 28.2212 8 29.3049 8.56293C30.2181 9.03731 30.9627 9.78191 31.4371 10.6951C32 11.7788 32 13.2025 32 16.05V23.95C32 26.7975 32 28.2212 31.4371 29.3049C30.9627 30.2181 30.2181 30.9627 29.3049 31.4371C28.2212 32 26.7975 32 23.95 32H16.05C13.2025 32 11.7788 32 10.6951 31.4371C9.78191 30.9627 9.03731 30.2181 8.56293 29.3049C8 28.2212 8 26.7975 8 23.95V16.05Z" fill="#1EA1F2"/>
<path fill-rule="evenodd" clip-rule="evenodd" d="M26.6614 17.0768C26.6672 17.2267 26.6691 17.3765 26.6691 17.5265C26.6691 22.0712 23.4721 27.3178 17.6259 27.3178C15.83 27.3178 14.1601 26.7455 12.7532 25.7711C13.0019 25.7984 13.2545 25.8188 13.5109 25.8188C14.9999 25.8188 16.3714 25.2668 17.4592 24.3402C16.0684 24.3197 14.894 23.3181 14.489 21.9554C14.6834 21.9962 14.8836 22.0167 15.0884 22.0167C15.3772 22.0167 15.6575 21.9759 15.9263 21.8941C14.4709 21.5807 13.3746 20.1908 13.3746 18.5214C13.3746 18.501 13.3746 18.4941 13.3746 18.4805C13.8036 18.7326 14.2945 18.8892 14.8158 18.9097C13.9618 18.2896 13.4004 17.2335 13.4004 16.0411C13.4004 15.4142 13.5568 14.8214 13.832 14.3104C15.3991 16.3954 17.7422 17.765 20.3836 17.9081C20.3294 17.656 20.3016 17.3903 20.3016 17.1245C20.3016 15.2235 21.7247 13.6836 23.4805 13.6836C24.3946 13.6836 25.2201 14.0993 25.7996 14.767C26.525 14.6171 27.2046 14.331 27.8196 13.9358C27.5812 14.7398 27.078 15.4142 26.4204 15.8367C27.0638 15.7549 27.6775 15.5711 28.2466 15.2985C27.8196 15.9867 27.2822 16.593 26.6614 17.0768Z" fill="white"/>
</svg>
