<svg width="16" height="16" viewBox="0 0 16 16" fill="none" xmlns="http://www.w3.org/2000/svg">
<path opacity="0.4" d="M11.1999 6H4.79992C2.66659 6 1.33325 7.33333 1.33325 9.46667V11.1933C1.33325 13.3333 2.66659 14.6667 4.79992 14.6667H11.1933C13.3266 14.6667 14.6599 13.3333 14.6599 11.2V9.46667C14.6666 7.33333 13.3333 6 11.1999 6Z" fill="#9E9E9E"/>
<path d="M10.5866 3.71427L8.35331 1.48094C8.15998 1.2876 7.83998 1.2876 7.64664 1.48094L5.41331 3.71427C5.21998 3.9076 5.21998 4.2276 5.41331 4.42094C5.60664 4.61427 5.92664 4.61427 6.11998 4.42094L7.49998 3.04094V10.1676C7.49998 10.4409 7.72664 10.6676 7.99998 10.6676C8.27331 10.6676 8.49998 10.4409 8.49998 10.1676V3.04094L9.87998 4.42094C9.97998 4.52094 10.1066 4.5676 10.2333 4.5676C10.36 4.5676 10.4866 4.52094 10.5866 4.42094C10.7866 4.2276 10.7866 3.91427 10.5866 3.71427Z" fill="#565656"/>
</svg>
