<svg width="12" height="14" viewBox="0 0 12 14" fill="none" xmlns="http://www.w3.org/2000/svg">
<path d="M1.75 5.125C1.75 7.4625 3.6625 9.375 6 9.375C8.3375 9.375 10.25 7.4625 10.25 5.125C10.25 2.7875 8.3375 0.875 6 0.875C3.6625 0.875 1.75 2.7875 1.75 5.125ZM9.25 5.125C9.25 6.9125 7.7875 8.375 6 8.375C4.2125 8.375 2.75 6.9125 2.75 5.125C2.75 3.3375 4.2125 1.875 6 1.875C7.7875 1.875 9.25 3.3375 9.25 5.125Z" fill="white"/>
<path d="M1.0499 13.925C2.3749 12.6 4.1249 11.875 5.9999 11.875C7.87491 11.875 9.6249 12.6 10.9499 13.925L11.6624 13.2125C10.1499 11.7125 8.1374 10.875 5.9999 10.875C3.8624 10.875 1.8499 11.7125 0.337402 13.2125L1.0499 13.925Z" fill="white"/>
</svg>
