<svg width="40" height="40" viewBox="0 0 40 40" fill="none" xmlns="http://www.w3.org/2000/svg">
<rect width="40" height="40" rx="4" fill="#E0E0E0"/>
<path d="M8 16.05C8 13.2025 8 11.7788 8.56293 10.6951C9.03731 9.78191 9.78191 9.03731 10.6951 8.56293C11.7788 8 13.2025 8 16.05 8H23.95C26.7975 8 28.2212 8 29.3049 8.56293C30.2181 9.03731 30.9627 9.78191 31.4371 10.6951C32 11.7788 32 13.2025 32 16.05V23.95C32 26.7975 32 28.2212 31.4371 29.3049C30.9627 30.2181 30.2181 30.9627 29.3049 31.4371C28.2212 32 26.7975 32 23.95 32H16.05C13.2025 32 11.7788 32 10.6951 31.4371C9.78191 30.9627 9.03731 30.2181 8.56293 29.3049C8 28.2212 8 26.7975 8 23.95V16.05Z" fill="#FF0000"/>
<path fill-rule="evenodd" clip-rule="evenodd" d="M27.0428 13.8855C27.8138 14.0931 28.4217 14.701 28.6292 15.472C29.0147 16.8805 28.9999 19.8163 28.9999 19.8163C28.9999 19.8163 28.9999 22.7372 28.6292 24.1458C28.4217 24.9168 27.8138 25.5247 27.0428 25.7322C25.6342 26.1029 20 26.1029 20 26.1029C20 26.1029 14.3805 26.1029 12.9572 25.7174C12.1862 25.5098 11.5783 24.9019 11.3707 24.1309C11 22.7372 11 19.8015 11 19.8015C11 19.8015 11 16.8805 11.3707 15.472C11.5783 14.701 12.201 14.0783 12.9572 13.8707C14.3657 13.5 20 13.5 20 13.5C20 13.5 25.6342 13.5 27.0428 13.8855ZM22.8912 19.6985L18.2059 22.397V17L22.8912 19.6985Z" fill="white"/>
</svg>
