<svg width="64" height="64" viewBox="0 0 64 64" fill="none" xmlns="http://www.w3.org/2000/svg">
<path d="M35.8134 39.9999H11.7334C6.88009 39.9999 3.78675 34.7999 6.13341 30.5332L12.3468 19.2265L18.1601 8.63984C20.5868 4.23984 26.9334 4.23984 29.3601 8.63984L35.2001 19.2265L38.0001 24.3199L41.4134 30.5332C43.7601 34.7999 40.6667 39.9999 35.8134 39.9999Z" fill="white"/>
<path opacity="0.4" d="M58.6667 41.3333C58.6667 50.9067 50.9067 58.6667 41.3333 58.6667C31.76 58.6667 24 50.9067 24 41.3333C24 40.88 24.0267 40.4533 24.0533 40H35.8133C40.6667 40 43.76 34.8 41.4133 30.5334L38 24.32C39.0667 24.1067 40.1867 24 41.3333 24C50.9067 24 58.6667 31.76 58.6667 41.3333Z" fill="white"/>
</svg>
