<svg width="14" height="12" viewBox="0 0 14 12" fill="none" xmlns="http://www.w3.org/2000/svg">
<path fill-rule="evenodd" clip-rule="evenodd" d="M11.8081 1.10126C12.0481 0.877063 12.3721 0.750883 12.7101 0.750005C13.0481 0.749126 13.3729 0.873619 13.6142 1.09657C13.8555 1.31952 13.9941 1.62301 13.9998 1.94143C14.0056 2.25985 13.8781 2.56762 13.645 2.79819L6.79822 10.8626C6.68055 10.982 6.53853 11.0779 6.38065 11.1444C6.22277 11.2109 6.05227 11.2468 5.87935 11.2498C5.70643 11.2528 5.53465 11.2229 5.37426 11.162C5.21387 11.101 5.06818 11.0102 4.9459 10.8949L0.409413 6.61869C0.283031 6.50772 0.181664 6.37391 0.111358 6.22522C0.0410522 6.07654 0.00324758 5.91604 0.000200188 5.75329C-0.0028472 5.59055 0.0289251 5.42889 0.0936211 5.27796C0.158317 5.12703 0.254612 4.98993 0.37676 4.87483C0.498909 4.75974 0.644408 4.669 0.80458 4.60804C0.964751 4.54708 1.13631 4.51714 1.30903 4.52001C1.48175 4.52288 1.65208 4.5585 1.80987 4.62475C1.96766 4.691 2.10967 4.78652 2.22744 4.9056L5.81889 8.28813L11.7755 1.13682C11.7861 1.1243 11.7976 1.11242 11.8098 1.10126H11.8081Z" fill="#27AE60"/>
</svg>
