<svg width="10" height="12" viewBox="0 0 10 12" fill="none" xmlns="http://www.w3.org/2000/svg">
<path d="M0.875 11.5C0.775544 11.5 0.680161 11.4586 0.609835 11.3849C0.539509 11.3113 0.5 11.2113 0.5 11.1071C0.5 11.003 0.539509 10.903 0.609835 10.8294C0.680161 10.7557 0.775544 10.7143 0.875 10.7143H1.625V9.92857C1.62485 9.26148 1.80484 8.60794 2.14419 8.04347C2.48354 7.47899 2.96839 7.02661 3.54275 6.73857C3.76025 6.62936 3.875 6.44236 3.875 6.275V5.725C3.875 5.55764 3.7595 5.37064 3.54275 5.26143C2.96839 4.97339 2.48354 4.52101 2.14419 3.95653C1.80484 3.39206 1.62485 2.73852 1.625 2.07143V1.28571H0.875C0.775544 1.28571 0.680161 1.24432 0.609835 1.17065C0.539509 1.09697 0.5 0.997049 0.5 0.892857C0.5 0.788665 0.539509 0.68874 0.609835 0.615065C0.680161 0.54139 0.775544 0.5 0.875 0.5H9.125C9.22446 0.5 9.31984 0.54139 9.39017 0.615065C9.46049 0.68874 9.5 0.788665 9.5 0.892857C9.5 0.997049 9.46049 1.09697 9.39017 1.17065C9.31984 1.24432 9.22446 1.28571 9.125 1.28571H8.375V2.07143C8.37515 2.73852 8.19516 3.39206 7.85581 3.95653C7.51646 4.52101 7.03161 4.97339 6.45725 5.26143C6.23975 5.37064 6.125 5.55764 6.125 5.725V6.275C6.125 6.44236 6.2405 6.62936 6.45725 6.73857C7.03161 7.02661 7.51646 7.47899 7.85581 8.04347C8.19516 8.60794 8.37515 9.26148 8.375 9.92857V10.7143H9.125C9.22446 10.7143 9.31984 10.7557 9.39017 10.8294C9.46049 10.903 9.5 11.003 9.5 11.1071C9.5 11.2113 9.46049 11.3113 9.39017 11.3849C9.31984 11.4586 9.22446 11.5 9.125 11.5H0.875ZM2.375 1.28571V2.07143C2.375 2.49336 2.465 2.8925 2.62775 3.25H7.37225C7.53425 2.8925 7.625 2.49336 7.625 2.07143V1.28571H2.375ZM4.625 6.275C4.625 6.82579 4.2665 7.24614 3.86675 7.44729C3.41997 7.6713 3.04281 8.02317 2.77884 8.46225C2.51487 8.90132 2.37486 9.40967 2.375 9.92857C2.375 9.92857 3.0245 8.90793 4.625 8.76571V6.275ZM5.375 6.275V8.76571C6.9755 8.90793 7.625 9.92857 7.625 9.92857C7.62514 9.40967 7.48513 8.90132 7.22116 8.46225C6.95719 8.02317 6.58003 7.6713 6.13325 7.44729C5.7335 7.24614 5.375 6.82579 5.375 6.275Z" fill="#FCBD0F"/>
</svg>
